%TF.GenerationSoftware,KiCad,Pcbnew,(5.1.9)-1*%
%TF.CreationDate,2021-08-08T09:56:34+02:00*%
%TF.ProjectId,PCB_Color_Palette,5043425f-436f-46c6-9f72-5f50616c6574,rev?*%
%TF.SameCoordinates,Original*%
%TF.FileFunction,Soldermask,Top*%
%TF.FilePolarity,Negative*%
%FSLAX46Y46*%
G04 Gerber Fmt 4.6, Leading zero omitted, Abs format (unit mm)*
G04 Created by KiCad (PCBNEW (5.1.9)-1) date 2021-08-08 09:56:34*
%MOMM*%
%LPD*%
G01*
G04 APERTURE LIST*
%ADD10C,0.100000*%
%ADD11C,0.254000*%
G04 APERTURE END LIST*
D10*
G36*
X146000000Y-137000000D02*
G01*
X140000000Y-137000000D01*
X140000000Y-122000000D01*
X146000000Y-122000000D01*
X146000000Y-137000000D01*
G37*
X146000000Y-137000000D02*
X140000000Y-137000000D01*
X140000000Y-122000000D01*
X146000000Y-122000000D01*
X146000000Y-137000000D01*
G36*
X137000000Y-137000000D02*
G01*
X131000000Y-137000000D01*
X131000000Y-122000000D01*
X137000000Y-122000000D01*
X137000000Y-137000000D01*
G37*
X137000000Y-137000000D02*
X131000000Y-137000000D01*
X131000000Y-122000000D01*
X137000000Y-122000000D01*
X137000000Y-137000000D01*
G36*
X123000000Y-137000000D02*
G01*
X117000000Y-137000000D01*
X117000000Y-122000000D01*
X123000000Y-122000000D01*
X123000000Y-137000000D01*
G37*
X123000000Y-137000000D02*
X117000000Y-137000000D01*
X117000000Y-122000000D01*
X123000000Y-122000000D01*
X123000000Y-137000000D01*
G36*
X114000000Y-137000000D02*
G01*
X108000000Y-137000000D01*
X108000000Y-122000000D01*
X114000000Y-122000000D01*
X114000000Y-137000000D01*
G37*
X114000000Y-137000000D02*
X108000000Y-137000000D01*
X108000000Y-122000000D01*
X114000000Y-122000000D01*
X114000000Y-137000000D01*
D11*
X122873000Y-96873000D02*
X108127000Y-96873000D01*
X108127000Y-82127000D01*
X122873000Y-82127000D01*
X122873000Y-96873000D01*
D10*
G36*
X122873000Y-96873000D02*
G01*
X108127000Y-96873000D01*
X108127000Y-82127000D01*
X122873000Y-82127000D01*
X122873000Y-96873000D01*
G37*
M02*
