%TF.GenerationSoftware,KiCad,Pcbnew,(5.1.9)-1*%
%TF.CreationDate,2021-08-08T09:56:34+02:00*%
%TF.ProjectId,PCB_Color_Palette,5043425f-436f-46c6-9f72-5f50616c6574,rev?*%
%TF.SameCoordinates,Original*%
%TF.FileFunction,Profile,NP*%
%FSLAX46Y46*%
G04 Gerber Fmt 4.6, Leading zero omitted, Abs format (unit mm)*
G04 Created by KiCad (PCBNEW (5.1.9)-1) date 2021-08-08 09:56:34*
%MOMM*%
%LPD*%
G01*
G04 APERTURE LIST*
%TA.AperFunction,Profile*%
%ADD10C,0.050000*%
%TD*%
G04 APERTURE END LIST*
D10*
X100000000Y-59200000D02*
X100000000Y-138800000D01*
X154000000Y-71000000D02*
X154000000Y-138800000D01*
X154000000Y-68000000D02*
X154000000Y-59200000D01*
X154000000Y-68000000D02*
G75*
G02*
X153000000Y-69000000I-1000000J0D01*
G01*
X147000000Y-69000000D02*
X153000000Y-69000000D01*
X147000000Y-70000000D02*
X153000000Y-70000000D01*
X146000000Y-71000000D02*
X146000000Y-75000000D01*
X146000000Y-64000000D02*
X146000000Y-68000000D01*
X146000000Y-71000000D02*
G75*
G02*
X147000000Y-70000000I1000000J0D01*
G01*
X147000000Y-69000000D02*
G75*
G02*
X146000000Y-68000000I0J1000000D01*
G01*
X153000000Y-70000000D02*
G75*
G02*
X154000000Y-71000000I0J-1000000D01*
G01*
X131000000Y-64000000D02*
X131000000Y-75000000D01*
X103000000Y-141800000D02*
G75*
G02*
X100000000Y-138800000I0J3000000D01*
G01*
X100000000Y-59200000D02*
G75*
G02*
X103000000Y-56200000I3000000J0D01*
G01*
X154000000Y-138800000D02*
G75*
G02*
X151000000Y-141800000I-3000000J0D01*
G01*
X151000000Y-56200000D02*
G75*
G02*
X154000000Y-59200000I0J-3000000D01*
G01*
X133000000Y-77000000D02*
G75*
G02*
X131000000Y-75000000I0J2000000D01*
G01*
X146000000Y-75000000D02*
G75*
G02*
X144000000Y-77000000I-2000000J0D01*
G01*
X144000000Y-62000000D02*
G75*
G02*
X146000000Y-64000000I0J-2000000D01*
G01*
X144000000Y-62000000D02*
X133000000Y-62000000D01*
X131000000Y-64000000D02*
G75*
G02*
X133000000Y-62000000I2000000J0D01*
G01*
X144000000Y-77000000D02*
X133000000Y-77000000D01*
X151000000Y-56200000D02*
X103000000Y-56200000D01*
X103000000Y-141800000D02*
X151000000Y-141800000D01*
M02*
