%TF.GenerationSoftware,KiCad,Pcbnew,(5.1.9)-1*%
%TF.CreationDate,2021-08-08T09:56:34+02:00*%
%TF.ProjectId,PCB_Color_Palette,5043425f-436f-46c6-9f72-5f50616c6574,rev?*%
%TF.SameCoordinates,Original*%
%TF.FileFunction,Legend,Top*%
%TF.FilePolarity,Positive*%
%FSLAX46Y46*%
G04 Gerber Fmt 4.6, Leading zero omitted, Abs format (unit mm)*
G04 Created by KiCad (PCBNEW (5.1.9)-1) date 2021-08-08 09:56:34*
%MOMM*%
%LPD*%
G01*
G04 APERTURE LIST*
%ADD10C,0.300000*%
%ADD11C,0.150000*%
%ADD12C,0.100000*%
G04 APERTURE END LIST*
D10*
X112964285Y-72392857D02*
X112464285Y-72392857D01*
X112464285Y-73178571D02*
X112464285Y-71678571D01*
X113178571Y-71678571D01*
X113750000Y-73178571D02*
X113750000Y-72178571D01*
X113750000Y-72464285D02*
X113821428Y-72321428D01*
X113892857Y-72250000D01*
X114035714Y-72178571D01*
X114178571Y-72178571D01*
X114892857Y-73178571D02*
X114750000Y-73107142D01*
X114678571Y-73035714D01*
X114607142Y-72892857D01*
X114607142Y-72464285D01*
X114678571Y-72321428D01*
X114750000Y-72250000D01*
X114892857Y-72178571D01*
X115107142Y-72178571D01*
X115250000Y-72250000D01*
X115321428Y-72321428D01*
X115392857Y-72464285D01*
X115392857Y-72892857D01*
X115321428Y-73035714D01*
X115250000Y-73107142D01*
X115107142Y-73178571D01*
X114892857Y-73178571D01*
X116035714Y-72178571D02*
X116035714Y-73178571D01*
X116035714Y-72321428D02*
X116107142Y-72250000D01*
X116250000Y-72178571D01*
X116464285Y-72178571D01*
X116607142Y-72250000D01*
X116678571Y-72392857D01*
X116678571Y-73178571D01*
X117178571Y-72178571D02*
X117750000Y-72178571D01*
X117392857Y-71678571D02*
X117392857Y-72964285D01*
X117464285Y-73107142D01*
X117607142Y-73178571D01*
X117750000Y-73178571D01*
D11*
X114666666Y-138928571D02*
X114333333Y-138928571D01*
X114333333Y-139452380D02*
X114333333Y-138452380D01*
X114809523Y-138452380D01*
X115761904Y-139452380D02*
X115428571Y-138976190D01*
X115190476Y-139452380D02*
X115190476Y-138452380D01*
X115571428Y-138452380D01*
X115666666Y-138500000D01*
X115714285Y-138547619D01*
X115761904Y-138642857D01*
X115761904Y-138785714D01*
X115714285Y-138880952D01*
X115666666Y-138928571D01*
X115571428Y-138976190D01*
X115190476Y-138976190D01*
X116619047Y-138785714D02*
X116619047Y-139452380D01*
X116380952Y-138404761D02*
X116142857Y-139119047D01*
X116761904Y-139119047D01*
X110095238Y-59452380D02*
X110095238Y-58452380D01*
X110476190Y-58452380D01*
X110571428Y-58500000D01*
X110619047Y-58547619D01*
X110666666Y-58642857D01*
X110666666Y-58785714D01*
X110619047Y-58880952D01*
X110571428Y-58928571D01*
X110476190Y-58976190D01*
X110095238Y-58976190D01*
X111666666Y-59357142D02*
X111619047Y-59404761D01*
X111476190Y-59452380D01*
X111380952Y-59452380D01*
X111238095Y-59404761D01*
X111142857Y-59309523D01*
X111095238Y-59214285D01*
X111047619Y-59023809D01*
X111047619Y-58880952D01*
X111095238Y-58690476D01*
X111142857Y-58595238D01*
X111238095Y-58500000D01*
X111380952Y-58452380D01*
X111476190Y-58452380D01*
X111619047Y-58500000D01*
X111666666Y-58547619D01*
X112428571Y-58928571D02*
X112571428Y-58976190D01*
X112619047Y-59023809D01*
X112666666Y-59119047D01*
X112666666Y-59261904D01*
X112619047Y-59357142D01*
X112571428Y-59404761D01*
X112476190Y-59452380D01*
X112095238Y-59452380D01*
X112095238Y-58452380D01*
X112428571Y-58452380D01*
X112523809Y-58500000D01*
X112571428Y-58547619D01*
X112619047Y-58642857D01*
X112619047Y-58738095D01*
X112571428Y-58833333D01*
X112523809Y-58880952D01*
X112428571Y-58928571D01*
X112095238Y-58928571D01*
X114428571Y-59357142D02*
X114380952Y-59404761D01*
X114238095Y-59452380D01*
X114142857Y-59452380D01*
X114000000Y-59404761D01*
X113904761Y-59309523D01*
X113857142Y-59214285D01*
X113809523Y-59023809D01*
X113809523Y-58880952D01*
X113857142Y-58690476D01*
X113904761Y-58595238D01*
X114000000Y-58500000D01*
X114142857Y-58452380D01*
X114238095Y-58452380D01*
X114380952Y-58500000D01*
X114428571Y-58547619D01*
X115000000Y-59452380D02*
X114904761Y-59404761D01*
X114857142Y-59357142D01*
X114809523Y-59261904D01*
X114809523Y-58976190D01*
X114857142Y-58880952D01*
X114904761Y-58833333D01*
X115000000Y-58785714D01*
X115142857Y-58785714D01*
X115238095Y-58833333D01*
X115285714Y-58880952D01*
X115333333Y-58976190D01*
X115333333Y-59261904D01*
X115285714Y-59357142D01*
X115238095Y-59404761D01*
X115142857Y-59452380D01*
X115000000Y-59452380D01*
X115904761Y-59452380D02*
X115809523Y-59404761D01*
X115761904Y-59309523D01*
X115761904Y-58452380D01*
X116428571Y-59452380D02*
X116333333Y-59404761D01*
X116285714Y-59357142D01*
X116238095Y-59261904D01*
X116238095Y-58976190D01*
X116285714Y-58880952D01*
X116333333Y-58833333D01*
X116428571Y-58785714D01*
X116571428Y-58785714D01*
X116666666Y-58833333D01*
X116714285Y-58880952D01*
X116761904Y-58976190D01*
X116761904Y-59261904D01*
X116714285Y-59357142D01*
X116666666Y-59404761D01*
X116571428Y-59452380D01*
X116428571Y-59452380D01*
X117190476Y-59452380D02*
X117190476Y-58785714D01*
X117190476Y-58976190D02*
X117238095Y-58880952D01*
X117285714Y-58833333D01*
X117380952Y-58785714D01*
X117476190Y-58785714D01*
X118571428Y-59452380D02*
X118571428Y-58452380D01*
X118952380Y-58452380D01*
X119047619Y-58500000D01*
X119095238Y-58547619D01*
X119142857Y-58642857D01*
X119142857Y-58785714D01*
X119095238Y-58880952D01*
X119047619Y-58928571D01*
X118952380Y-58976190D01*
X118571428Y-58976190D01*
X120000000Y-59452380D02*
X120000000Y-58928571D01*
X119952380Y-58833333D01*
X119857142Y-58785714D01*
X119666666Y-58785714D01*
X119571428Y-58833333D01*
X120000000Y-59404761D02*
X119904761Y-59452380D01*
X119666666Y-59452380D01*
X119571428Y-59404761D01*
X119523809Y-59309523D01*
X119523809Y-59214285D01*
X119571428Y-59119047D01*
X119666666Y-59071428D01*
X119904761Y-59071428D01*
X120000000Y-59023809D01*
X120619047Y-59452380D02*
X120523809Y-59404761D01*
X120476190Y-59309523D01*
X120476190Y-58452380D01*
X121380952Y-59404761D02*
X121285714Y-59452380D01*
X121095238Y-59452380D01*
X121000000Y-59404761D01*
X120952380Y-59309523D01*
X120952380Y-58928571D01*
X121000000Y-58833333D01*
X121095238Y-58785714D01*
X121285714Y-58785714D01*
X121380952Y-58833333D01*
X121428571Y-58928571D01*
X121428571Y-59023809D01*
X120952380Y-59119047D01*
X121714285Y-58785714D02*
X122095238Y-58785714D01*
X121857142Y-58452380D02*
X121857142Y-59309523D01*
X121904761Y-59404761D01*
X122000000Y-59452380D01*
X122095238Y-59452380D01*
X122285714Y-58785714D02*
X122666666Y-58785714D01*
X122428571Y-58452380D02*
X122428571Y-59309523D01*
X122476190Y-59404761D01*
X122571428Y-59452380D01*
X122666666Y-59452380D01*
X123380952Y-59404761D02*
X123285714Y-59452380D01*
X123095238Y-59452380D01*
X123000000Y-59404761D01*
X122952380Y-59309523D01*
X122952380Y-58928571D01*
X123000000Y-58833333D01*
X123095238Y-58785714D01*
X123285714Y-58785714D01*
X123380952Y-58833333D01*
X123428571Y-58928571D01*
X123428571Y-59023809D01*
X122952380Y-59119047D01*
X124619047Y-59452380D02*
X124619047Y-58452380D01*
X124619047Y-58833333D02*
X124714285Y-58785714D01*
X124904761Y-58785714D01*
X124999999Y-58833333D01*
X125047619Y-58880952D01*
X125095238Y-58976190D01*
X125095238Y-59261904D01*
X125047619Y-59357142D01*
X124999999Y-59404761D01*
X124904761Y-59452380D01*
X124714285Y-59452380D01*
X124619047Y-59404761D01*
X125428571Y-58785714D02*
X125666666Y-59452380D01*
X125904761Y-58785714D02*
X125666666Y-59452380D01*
X125571428Y-59690476D01*
X125523809Y-59738095D01*
X125428571Y-59785714D01*
X127047619Y-59452380D02*
X127047619Y-58452380D01*
X127380952Y-59166666D01*
X127714285Y-58452380D01*
X127714285Y-59452380D01*
X128619047Y-59452380D02*
X128619047Y-58928571D01*
X128571428Y-58833333D01*
X128476190Y-58785714D01*
X128285714Y-58785714D01*
X128190476Y-58833333D01*
X128619047Y-59404761D02*
X128523809Y-59452380D01*
X128285714Y-59452380D01*
X128190476Y-59404761D01*
X128142857Y-59309523D01*
X128142857Y-59214285D01*
X128190476Y-59119047D01*
X128285714Y-59071428D01*
X128523809Y-59071428D01*
X128619047Y-59023809D01*
X129095238Y-59452380D02*
X129095238Y-58785714D01*
X129095238Y-58976190D02*
X129142857Y-58880952D01*
X129190476Y-58833333D01*
X129285714Y-58785714D01*
X129380952Y-58785714D01*
X130142857Y-59404761D02*
X130047619Y-59452380D01*
X129857142Y-59452380D01*
X129761904Y-59404761D01*
X129714285Y-59357142D01*
X129666666Y-59261904D01*
X129666666Y-58976190D01*
X129714285Y-58880952D01*
X129761904Y-58833333D01*
X129857142Y-58785714D01*
X130047619Y-58785714D01*
X130142857Y-58833333D01*
X130714285Y-59452380D02*
X130619047Y-59404761D01*
X130571428Y-59357142D01*
X130523809Y-59261904D01*
X130523809Y-58976190D01*
X130571428Y-58880952D01*
X130619047Y-58833333D01*
X130714285Y-58785714D01*
X130857142Y-58785714D01*
X130952380Y-58833333D01*
X130999999Y-58880952D01*
X131047619Y-58976190D01*
X131047619Y-59261904D01*
X130999999Y-59357142D01*
X130952380Y-59404761D01*
X130857142Y-59452380D01*
X130714285Y-59452380D01*
X132095238Y-58452380D02*
X132428571Y-59452380D01*
X132761904Y-58452380D01*
X133523809Y-59452380D02*
X133523809Y-58928571D01*
X133476190Y-58833333D01*
X133380952Y-58785714D01*
X133190476Y-58785714D01*
X133095238Y-58833333D01*
X133523809Y-59404761D02*
X133428571Y-59452380D01*
X133190476Y-59452380D01*
X133095238Y-59404761D01*
X133047619Y-59309523D01*
X133047619Y-59214285D01*
X133095238Y-59119047D01*
X133190476Y-59071428D01*
X133428571Y-59071428D01*
X133523809Y-59023809D01*
X133904761Y-58785714D02*
X134428571Y-58785714D01*
X133904761Y-59452380D01*
X134428571Y-59452380D01*
X135238095Y-58785714D02*
X135238095Y-59785714D01*
X135238095Y-59404761D02*
X135142857Y-59452380D01*
X134952380Y-59452380D01*
X134857142Y-59404761D01*
X134809523Y-59357142D01*
X134761904Y-59261904D01*
X134761904Y-58976190D01*
X134809523Y-58880952D01*
X134857142Y-58833333D01*
X134952380Y-58785714D01*
X135142857Y-58785714D01*
X135238095Y-58833333D01*
X136142857Y-58785714D02*
X136142857Y-59452380D01*
X135714285Y-58785714D02*
X135714285Y-59309523D01*
X135761904Y-59404761D01*
X135857142Y-59452380D01*
X135999999Y-59452380D01*
X136095238Y-59404761D01*
X136142857Y-59357142D01*
X136999999Y-59404761D02*
X136904761Y-59452380D01*
X136714285Y-59452380D01*
X136619047Y-59404761D01*
X136571428Y-59309523D01*
X136571428Y-58928571D01*
X136619047Y-58833333D01*
X136714285Y-58785714D01*
X136904761Y-58785714D01*
X136999999Y-58833333D01*
X137047619Y-58928571D01*
X137047619Y-59023809D01*
X136571428Y-59119047D01*
X137380952Y-58785714D02*
X137904761Y-58785714D01*
X137380952Y-59452380D01*
X137904761Y-59452380D01*
X139047619Y-59452380D02*
X139047619Y-58452380D01*
X139380952Y-59166666D01*
X139714285Y-58452380D01*
X139714285Y-59452380D01*
X140619047Y-59452380D02*
X140619047Y-58928571D01*
X140571428Y-58833333D01*
X140476190Y-58785714D01*
X140285714Y-58785714D01*
X140190476Y-58833333D01*
X140619047Y-59404761D02*
X140523809Y-59452380D01*
X140285714Y-59452380D01*
X140190476Y-59404761D01*
X140142857Y-59309523D01*
X140142857Y-59214285D01*
X140190476Y-59119047D01*
X140285714Y-59071428D01*
X140523809Y-59071428D01*
X140619047Y-59023809D01*
X141523809Y-59452380D02*
X141523809Y-58452380D01*
X141523809Y-59404761D02*
X141428571Y-59452380D01*
X141238095Y-59452380D01*
X141142857Y-59404761D01*
X141095238Y-59357142D01*
X141047619Y-59261904D01*
X141047619Y-58976190D01*
X141095238Y-58880952D01*
X141142857Y-58833333D01*
X141238095Y-58785714D01*
X141428571Y-58785714D01*
X141523809Y-58833333D01*
X142380952Y-59404761D02*
X142285714Y-59452380D01*
X142095238Y-59452380D01*
X141999999Y-59404761D01*
X141952380Y-59309523D01*
X141952380Y-58928571D01*
X141999999Y-58833333D01*
X142095238Y-58785714D01*
X142285714Y-58785714D01*
X142380952Y-58833333D01*
X142428571Y-58928571D01*
X142428571Y-59023809D01*
X141952380Y-59119047D01*
X142857142Y-59452380D02*
X142857142Y-58785714D01*
X142857142Y-58976190D02*
X142904761Y-58880952D01*
X142952380Y-58833333D01*
X143047619Y-58785714D01*
X143142857Y-58785714D01*
X143619047Y-59452380D02*
X143523809Y-59404761D01*
X143476190Y-59357142D01*
X143428571Y-59261904D01*
X143428571Y-58976190D01*
X143476190Y-58880952D01*
X143523809Y-58833333D01*
X143619047Y-58785714D01*
X143761904Y-58785714D01*
X143857142Y-58833333D01*
X143904761Y-58880952D01*
X143952380Y-58976190D01*
X143952380Y-59261904D01*
X143904761Y-59357142D01*
X143857142Y-59404761D01*
X143761904Y-59452380D01*
X143619047Y-59452380D01*
D12*
G36*
X146000000Y-97000000D02*
G01*
X131000000Y-97000000D01*
X131000000Y-82000000D01*
X146000000Y-82000000D01*
X146000000Y-97000000D01*
G37*
X146000000Y-97000000D02*
X131000000Y-97000000D01*
X131000000Y-82000000D01*
X146000000Y-82000000D01*
X146000000Y-97000000D01*
D11*
X110833333Y-118928571D02*
X110500000Y-118928571D01*
X110500000Y-119452380D02*
X110500000Y-118452380D01*
X110976190Y-118452380D01*
X111357142Y-119357142D02*
X111404761Y-119404761D01*
X111357142Y-119452380D01*
X111309523Y-119404761D01*
X111357142Y-119357142D01*
X111357142Y-119452380D01*
X112404761Y-119357142D02*
X112357142Y-119404761D01*
X112214285Y-119452380D01*
X112119047Y-119452380D01*
X111976190Y-119404761D01*
X111880952Y-119309523D01*
X111833333Y-119214285D01*
X111785714Y-119023809D01*
X111785714Y-118880952D01*
X111833333Y-118690476D01*
X111880952Y-118595238D01*
X111976190Y-118500000D01*
X112119047Y-118452380D01*
X112214285Y-118452380D01*
X112357142Y-118500000D01*
X112404761Y-118547619D01*
X113261904Y-118785714D02*
X113261904Y-119452380D01*
X112833333Y-118785714D02*
X112833333Y-119309523D01*
X112880952Y-119404761D01*
X112976190Y-119452380D01*
X113119047Y-119452380D01*
X113214285Y-119404761D01*
X113261904Y-119357142D01*
X113738095Y-119071428D02*
X114500000Y-119071428D01*
X114119047Y-119452380D02*
X114119047Y-118690476D01*
X115309523Y-118928571D02*
X114976190Y-118928571D01*
X114976190Y-119452380D02*
X114976190Y-118452380D01*
X115452380Y-118452380D01*
X115833333Y-119357142D02*
X115880952Y-119404761D01*
X115833333Y-119452380D01*
X115785714Y-119404761D01*
X115833333Y-119357142D01*
X115833333Y-119452380D01*
X116309523Y-119452380D02*
X116309523Y-118452380D01*
X116642857Y-119166666D01*
X116976190Y-118452380D01*
X116976190Y-119452380D01*
X117880952Y-119452380D02*
X117880952Y-118928571D01*
X117833333Y-118833333D01*
X117738095Y-118785714D01*
X117547619Y-118785714D01*
X117452380Y-118833333D01*
X117880952Y-119404761D02*
X117785714Y-119452380D01*
X117547619Y-119452380D01*
X117452380Y-119404761D01*
X117404761Y-119309523D01*
X117404761Y-119214285D01*
X117452380Y-119119047D01*
X117547619Y-119071428D01*
X117785714Y-119071428D01*
X117880952Y-119023809D01*
X118309523Y-119404761D02*
X118404761Y-119452380D01*
X118595238Y-119452380D01*
X118690476Y-119404761D01*
X118738095Y-119309523D01*
X118738095Y-119261904D01*
X118690476Y-119166666D01*
X118595238Y-119119047D01*
X118452380Y-119119047D01*
X118357142Y-119071428D01*
X118309523Y-118976190D01*
X118309523Y-118928571D01*
X118357142Y-118833333D01*
X118452380Y-118785714D01*
X118595238Y-118785714D01*
X118690476Y-118833333D01*
X119166666Y-119452380D02*
X119166666Y-118452380D01*
X119261904Y-119071428D02*
X119547619Y-119452380D01*
X119547619Y-118785714D02*
X119166666Y-119166666D01*
X134761904Y-118928571D02*
X134904761Y-118976190D01*
X134952380Y-119023809D01*
X135000000Y-119119047D01*
X135000000Y-119261904D01*
X134952380Y-119357142D01*
X134904761Y-119404761D01*
X134809523Y-119452380D01*
X134428571Y-119452380D01*
X134428571Y-118452380D01*
X134761904Y-118452380D01*
X134857142Y-118500000D01*
X134904761Y-118547619D01*
X134952380Y-118642857D01*
X134952380Y-118738095D01*
X134904761Y-118833333D01*
X134857142Y-118880952D01*
X134761904Y-118928571D01*
X134428571Y-118928571D01*
X135428571Y-119357142D02*
X135476190Y-119404761D01*
X135428571Y-119452380D01*
X135380952Y-119404761D01*
X135428571Y-119357142D01*
X135428571Y-119452380D01*
X136476190Y-119357142D02*
X136428571Y-119404761D01*
X136285714Y-119452380D01*
X136190476Y-119452380D01*
X136047619Y-119404761D01*
X135952380Y-119309523D01*
X135904761Y-119214285D01*
X135857142Y-119023809D01*
X135857142Y-118880952D01*
X135904761Y-118690476D01*
X135952380Y-118595238D01*
X136047619Y-118500000D01*
X136190476Y-118452380D01*
X136285714Y-118452380D01*
X136428571Y-118500000D01*
X136476190Y-118547619D01*
X137333333Y-118785714D02*
X137333333Y-119452380D01*
X136904761Y-118785714D02*
X136904761Y-119309523D01*
X136952380Y-119404761D01*
X137047619Y-119452380D01*
X137190476Y-119452380D01*
X137285714Y-119404761D01*
X137333333Y-119357142D01*
X137809523Y-119071428D02*
X138571428Y-119071428D01*
X138190476Y-119452380D02*
X138190476Y-118690476D01*
X139380952Y-118928571D02*
X139047619Y-118928571D01*
X139047619Y-119452380D02*
X139047619Y-118452380D01*
X139523809Y-118452380D01*
X139904761Y-119357142D02*
X139952380Y-119404761D01*
X139904761Y-119452380D01*
X139857142Y-119404761D01*
X139904761Y-119357142D01*
X139904761Y-119452380D01*
X140380952Y-119452380D02*
X140380952Y-118452380D01*
X140714285Y-119166666D01*
X141047619Y-118452380D01*
X141047619Y-119452380D01*
X141952380Y-119452380D02*
X141952380Y-118928571D01*
X141904761Y-118833333D01*
X141809523Y-118785714D01*
X141619047Y-118785714D01*
X141523809Y-118833333D01*
X141952380Y-119404761D02*
X141857142Y-119452380D01*
X141619047Y-119452380D01*
X141523809Y-119404761D01*
X141476190Y-119309523D01*
X141476190Y-119214285D01*
X141523809Y-119119047D01*
X141619047Y-119071428D01*
X141857142Y-119071428D01*
X141952380Y-119023809D01*
X142380952Y-119404761D02*
X142476190Y-119452380D01*
X142666666Y-119452380D01*
X142761904Y-119404761D01*
X142809523Y-119309523D01*
X142809523Y-119261904D01*
X142761904Y-119166666D01*
X142666666Y-119119047D01*
X142523809Y-119119047D01*
X142428571Y-119071428D01*
X142380952Y-118976190D01*
X142380952Y-118928571D01*
X142428571Y-118833333D01*
X142523809Y-118785714D01*
X142666666Y-118785714D01*
X142761904Y-118833333D01*
X143238095Y-119452380D02*
X143238095Y-118452380D01*
X143333333Y-119071428D02*
X143619047Y-119452380D01*
X143619047Y-118785714D02*
X143238095Y-119166666D01*
X137166666Y-138928571D02*
X136833333Y-138928571D01*
X136833333Y-139452380D02*
X136833333Y-138452380D01*
X137309523Y-138452380D01*
X138261904Y-139452380D02*
X137928571Y-138976190D01*
X137690476Y-139452380D02*
X137690476Y-138452380D01*
X138071428Y-138452380D01*
X138166666Y-138500000D01*
X138214285Y-138547619D01*
X138261904Y-138642857D01*
X138261904Y-138785714D01*
X138214285Y-138880952D01*
X138166666Y-138928571D01*
X138071428Y-138976190D01*
X137690476Y-138976190D01*
X139119047Y-138785714D02*
X139119047Y-139452380D01*
X138880952Y-138404761D02*
X138642857Y-139119047D01*
X139261904Y-139119047D01*
X109476190Y-98928571D02*
X109142857Y-98928571D01*
X109142857Y-99452380D02*
X109142857Y-98452380D01*
X109619047Y-98452380D01*
X110000000Y-99357142D02*
X110047619Y-99404761D01*
X110000000Y-99452380D01*
X109952380Y-99404761D01*
X110000000Y-99357142D01*
X110000000Y-99452380D01*
X111047619Y-99357142D02*
X111000000Y-99404761D01*
X110857142Y-99452380D01*
X110761904Y-99452380D01*
X110619047Y-99404761D01*
X110523809Y-99309523D01*
X110476190Y-99214285D01*
X110428571Y-99023809D01*
X110428571Y-98880952D01*
X110476190Y-98690476D01*
X110523809Y-98595238D01*
X110619047Y-98500000D01*
X110761904Y-98452380D01*
X110857142Y-98452380D01*
X111000000Y-98500000D01*
X111047619Y-98547619D01*
X111904761Y-98785714D02*
X111904761Y-99452380D01*
X111476190Y-98785714D02*
X111476190Y-99309523D01*
X111523809Y-99404761D01*
X111619047Y-99452380D01*
X111761904Y-99452380D01*
X111857142Y-99404761D01*
X111904761Y-99357142D01*
X112380952Y-99071428D02*
X113142857Y-99071428D01*
X112761904Y-99452380D02*
X112761904Y-98690476D01*
X113619047Y-99452380D02*
X113619047Y-98452380D01*
X114190476Y-99452380D01*
X114190476Y-98452380D01*
X114809523Y-99452380D02*
X114714285Y-99404761D01*
X114666666Y-99357142D01*
X114619047Y-99261904D01*
X114619047Y-98976190D01*
X114666666Y-98880952D01*
X114714285Y-98833333D01*
X114809523Y-98785714D01*
X114952380Y-98785714D01*
X115047619Y-98833333D01*
X115095238Y-98880952D01*
X115142857Y-98976190D01*
X115142857Y-99261904D01*
X115095238Y-99357142D01*
X115047619Y-99404761D01*
X114952380Y-99452380D01*
X114809523Y-99452380D01*
X116666666Y-98928571D02*
X116333333Y-98928571D01*
X116333333Y-99452380D02*
X116333333Y-98452380D01*
X116809523Y-98452380D01*
X117190476Y-99357142D02*
X117238095Y-99404761D01*
X117190476Y-99452380D01*
X117142857Y-99404761D01*
X117190476Y-99357142D01*
X117190476Y-99452380D01*
X117666666Y-99452380D02*
X117666666Y-98452380D01*
X118000000Y-99166666D01*
X118333333Y-98452380D01*
X118333333Y-99452380D01*
X119238095Y-99452380D02*
X119238095Y-98928571D01*
X119190476Y-98833333D01*
X119095238Y-98785714D01*
X118904761Y-98785714D01*
X118809523Y-98833333D01*
X119238095Y-99404761D02*
X119142857Y-99452380D01*
X118904761Y-99452380D01*
X118809523Y-99404761D01*
X118761904Y-99309523D01*
X118761904Y-99214285D01*
X118809523Y-99119047D01*
X118904761Y-99071428D01*
X119142857Y-99071428D01*
X119238095Y-99023809D01*
X119666666Y-99404761D02*
X119761904Y-99452380D01*
X119952380Y-99452380D01*
X120047619Y-99404761D01*
X120095238Y-99309523D01*
X120095238Y-99261904D01*
X120047619Y-99166666D01*
X119952380Y-99119047D01*
X119809523Y-99119047D01*
X119714285Y-99071428D01*
X119666666Y-98976190D01*
X119666666Y-98928571D01*
X119714285Y-98833333D01*
X119809523Y-98785714D01*
X119952380Y-98785714D01*
X120047619Y-98833333D01*
X120523809Y-99452380D02*
X120523809Y-98452380D01*
X120619047Y-99071428D02*
X120904761Y-99452380D01*
X120904761Y-98785714D02*
X120523809Y-99166666D01*
X134357142Y-99404761D02*
X134500000Y-99452380D01*
X134738095Y-99452380D01*
X134833333Y-99404761D01*
X134880952Y-99357142D01*
X134928571Y-99261904D01*
X134928571Y-99166666D01*
X134880952Y-99071428D01*
X134833333Y-99023809D01*
X134738095Y-98976190D01*
X134547619Y-98928571D01*
X134452380Y-98880952D01*
X134404761Y-98833333D01*
X134357142Y-98738095D01*
X134357142Y-98642857D01*
X134404761Y-98547619D01*
X134452380Y-98500000D01*
X134547619Y-98452380D01*
X134785714Y-98452380D01*
X134928571Y-98500000D01*
X135357142Y-99452380D02*
X135357142Y-98785714D01*
X135357142Y-98452380D02*
X135309523Y-98500000D01*
X135357142Y-98547619D01*
X135404761Y-98500000D01*
X135357142Y-98452380D01*
X135357142Y-98547619D01*
X135976190Y-99452380D02*
X135880952Y-99404761D01*
X135833333Y-99309523D01*
X135833333Y-98452380D01*
X136357142Y-99452380D02*
X136357142Y-98452380D01*
X136452380Y-99071428D02*
X136738095Y-99452380D01*
X136738095Y-98785714D02*
X136357142Y-99166666D01*
X137119047Y-99404761D02*
X137214285Y-99452380D01*
X137404761Y-99452380D01*
X137500000Y-99404761D01*
X137547619Y-99309523D01*
X137547619Y-99261904D01*
X137500000Y-99166666D01*
X137404761Y-99119047D01*
X137261904Y-99119047D01*
X137166666Y-99071428D01*
X137119047Y-98976190D01*
X137119047Y-98928571D01*
X137166666Y-98833333D01*
X137261904Y-98785714D01*
X137404761Y-98785714D01*
X137500000Y-98833333D01*
X138404761Y-99404761D02*
X138309523Y-99452380D01*
X138119047Y-99452380D01*
X138023809Y-99404761D01*
X137976190Y-99357142D01*
X137928571Y-99261904D01*
X137928571Y-98976190D01*
X137976190Y-98880952D01*
X138023809Y-98833333D01*
X138119047Y-98785714D01*
X138309523Y-98785714D01*
X138404761Y-98833333D01*
X138833333Y-99452380D02*
X138833333Y-98785714D01*
X138833333Y-98976190D02*
X138880952Y-98880952D01*
X138928571Y-98833333D01*
X139023809Y-98785714D01*
X139119047Y-98785714D01*
X139833333Y-99404761D02*
X139738095Y-99452380D01*
X139547619Y-99452380D01*
X139452380Y-99404761D01*
X139404761Y-99309523D01*
X139404761Y-98928571D01*
X139452380Y-98833333D01*
X139547619Y-98785714D01*
X139738095Y-98785714D01*
X139833333Y-98833333D01*
X139880952Y-98928571D01*
X139880952Y-99023809D01*
X139404761Y-99119047D01*
X140690476Y-99404761D02*
X140595238Y-99452380D01*
X140404761Y-99452380D01*
X140309523Y-99404761D01*
X140261904Y-99309523D01*
X140261904Y-98928571D01*
X140309523Y-98833333D01*
X140404761Y-98785714D01*
X140595238Y-98785714D01*
X140690476Y-98833333D01*
X140738095Y-98928571D01*
X140738095Y-99023809D01*
X140261904Y-99119047D01*
X141166666Y-98785714D02*
X141166666Y-99452380D01*
X141166666Y-98880952D02*
X141214285Y-98833333D01*
X141309523Y-98785714D01*
X141452380Y-98785714D01*
X141547619Y-98833333D01*
X141595238Y-98928571D01*
X141595238Y-99452380D01*
M02*
