%TF.GenerationSoftware,KiCad,Pcbnew,(5.1.9)-1*%
%TF.CreationDate,2021-08-08T09:56:34+02:00*%
%TF.ProjectId,PCB_Color_Palette,5043425f-436f-46c6-9f72-5f50616c6574,rev?*%
%TF.SameCoordinates,Original*%
%TF.FileFunction,Legend,Bot*%
%TF.FilePolarity,Positive*%
%FSLAX46Y46*%
G04 Gerber Fmt 4.6, Leading zero omitted, Abs format (unit mm)*
G04 Created by KiCad (PCBNEW (5.1.9)-1) date 2021-08-08 09:56:34*
%MOMM*%
%LPD*%
G01*
G04 APERTURE LIST*
%ADD10C,0.100000*%
%ADD11C,0.150000*%
%ADD12C,0.300000*%
%ADD13C,0.010000*%
G04 APERTURE END LIST*
D10*
G36*
X146000000Y-137000000D02*
G01*
X140000000Y-137000000D01*
X140000000Y-122000000D01*
X146000000Y-122000000D01*
X146000000Y-137000000D01*
G37*
X146000000Y-137000000D02*
X140000000Y-137000000D01*
X140000000Y-122000000D01*
X146000000Y-122000000D01*
X146000000Y-137000000D01*
D11*
X145214285Y-99452380D02*
X145214285Y-98452380D01*
X144785714Y-99452380D02*
X144785714Y-98928571D01*
X144833333Y-98833333D01*
X144928571Y-98785714D01*
X145071428Y-98785714D01*
X145166666Y-98833333D01*
X145214285Y-98880952D01*
X144452380Y-98785714D02*
X144071428Y-98785714D01*
X144309523Y-98452380D02*
X144309523Y-99309523D01*
X144261904Y-99404761D01*
X144166666Y-99452380D01*
X144071428Y-99452380D01*
X143880952Y-98785714D02*
X143500000Y-98785714D01*
X143738095Y-98452380D02*
X143738095Y-99309523D01*
X143690476Y-99404761D01*
X143595238Y-99452380D01*
X143500000Y-99452380D01*
X143166666Y-98785714D02*
X143166666Y-99785714D01*
X143166666Y-98833333D02*
X143071428Y-98785714D01*
X142880952Y-98785714D01*
X142785714Y-98833333D01*
X142738095Y-98880952D01*
X142690476Y-98976190D01*
X142690476Y-99261904D01*
X142738095Y-99357142D01*
X142785714Y-99404761D01*
X142880952Y-99452380D01*
X143071428Y-99452380D01*
X143166666Y-99404761D01*
X142309523Y-99404761D02*
X142214285Y-99452380D01*
X142023809Y-99452380D01*
X141928571Y-99404761D01*
X141880952Y-99309523D01*
X141880952Y-99261904D01*
X141928571Y-99166666D01*
X142023809Y-99119047D01*
X142166666Y-99119047D01*
X142261904Y-99071428D01*
X142309523Y-98976190D01*
X142309523Y-98928571D01*
X142261904Y-98833333D01*
X142166666Y-98785714D01*
X142023809Y-98785714D01*
X141928571Y-98833333D01*
X141452380Y-99357142D02*
X141404761Y-99404761D01*
X141452380Y-99452380D01*
X141500000Y-99404761D01*
X141452380Y-99357142D01*
X141452380Y-99452380D01*
X141452380Y-98833333D02*
X141404761Y-98880952D01*
X141452380Y-98928571D01*
X141500000Y-98880952D01*
X141452380Y-98833333D01*
X141452380Y-98928571D01*
X140261904Y-98404761D02*
X141119047Y-99690476D01*
X139214285Y-98404761D02*
X140071428Y-99690476D01*
X138452380Y-98785714D02*
X138452380Y-99595238D01*
X138499999Y-99690476D01*
X138547619Y-99738095D01*
X138642857Y-99785714D01*
X138785714Y-99785714D01*
X138880952Y-99738095D01*
X138452380Y-99404761D02*
X138547619Y-99452380D01*
X138738095Y-99452380D01*
X138833333Y-99404761D01*
X138880952Y-99357142D01*
X138928571Y-99261904D01*
X138928571Y-98976190D01*
X138880952Y-98880952D01*
X138833333Y-98833333D01*
X138738095Y-98785714D01*
X138547619Y-98785714D01*
X138452380Y-98833333D01*
X137976190Y-99452380D02*
X137976190Y-98785714D01*
X137976190Y-98452380D02*
X138023809Y-98500000D01*
X137976190Y-98547619D01*
X137928571Y-98500000D01*
X137976190Y-98452380D01*
X137976190Y-98547619D01*
X137642857Y-98785714D02*
X137261904Y-98785714D01*
X137499999Y-98452380D02*
X137499999Y-99309523D01*
X137452380Y-99404761D01*
X137357142Y-99452380D01*
X137261904Y-99452380D01*
X136928571Y-99452380D02*
X136928571Y-98452380D01*
X136499999Y-99452380D02*
X136499999Y-98928571D01*
X136547619Y-98833333D01*
X136642857Y-98785714D01*
X136785714Y-98785714D01*
X136880952Y-98833333D01*
X136928571Y-98880952D01*
X135595238Y-98785714D02*
X135595238Y-99452380D01*
X136023809Y-98785714D02*
X136023809Y-99309523D01*
X135976190Y-99404761D01*
X135880952Y-99452380D01*
X135738095Y-99452380D01*
X135642857Y-99404761D01*
X135595238Y-99357142D01*
X135119047Y-99452380D02*
X135119047Y-98452380D01*
X135119047Y-98833333D02*
X135023809Y-98785714D01*
X134833333Y-98785714D01*
X134738095Y-98833333D01*
X134690476Y-98880952D01*
X134642857Y-98976190D01*
X134642857Y-99261904D01*
X134690476Y-99357142D01*
X134738095Y-99404761D01*
X134833333Y-99452380D01*
X135023809Y-99452380D01*
X135119047Y-99404761D01*
X134214285Y-99357142D02*
X134166666Y-99404761D01*
X134214285Y-99452380D01*
X134261904Y-99404761D01*
X134214285Y-99357142D01*
X134214285Y-99452380D01*
X133309523Y-99404761D02*
X133404761Y-99452380D01*
X133595238Y-99452380D01*
X133690476Y-99404761D01*
X133738095Y-99357142D01*
X133785714Y-99261904D01*
X133785714Y-98976190D01*
X133738095Y-98880952D01*
X133690476Y-98833333D01*
X133595238Y-98785714D01*
X133404761Y-98785714D01*
X133309523Y-98833333D01*
X132738095Y-99452380D02*
X132833333Y-99404761D01*
X132880952Y-99357142D01*
X132928571Y-99261904D01*
X132928571Y-98976190D01*
X132880952Y-98880952D01*
X132833333Y-98833333D01*
X132738095Y-98785714D01*
X132595238Y-98785714D01*
X132499999Y-98833333D01*
X132452380Y-98880952D01*
X132404761Y-98976190D01*
X132404761Y-99261904D01*
X132452380Y-99357142D01*
X132499999Y-99404761D01*
X132595238Y-99452380D01*
X132738095Y-99452380D01*
X131976190Y-99452380D02*
X131976190Y-98785714D01*
X131976190Y-98880952D02*
X131928571Y-98833333D01*
X131833333Y-98785714D01*
X131690476Y-98785714D01*
X131595238Y-98833333D01*
X131547619Y-98928571D01*
X131547619Y-99452380D01*
X131547619Y-98928571D02*
X131499999Y-98833333D01*
X131404761Y-98785714D01*
X131261904Y-98785714D01*
X131166666Y-98833333D01*
X131119047Y-98928571D01*
X131119047Y-99452380D01*
X129928571Y-98404761D02*
X130785714Y-99690476D01*
X129595238Y-99452380D02*
X129595238Y-98452380D01*
X129595238Y-98928571D02*
X129023809Y-98928571D01*
X129023809Y-99452380D02*
X129023809Y-98452380D01*
X128119047Y-99452380D02*
X128119047Y-98928571D01*
X128166666Y-98833333D01*
X128261904Y-98785714D01*
X128452380Y-98785714D01*
X128547619Y-98833333D01*
X128119047Y-99404761D02*
X128214285Y-99452380D01*
X128452380Y-99452380D01*
X128547619Y-99404761D01*
X128595238Y-99309523D01*
X128595238Y-99214285D01*
X128547619Y-99119047D01*
X128452380Y-99071428D01*
X128214285Y-99071428D01*
X128119047Y-99023809D01*
X127642857Y-98785714D02*
X127642857Y-99452380D01*
X127642857Y-98880952D02*
X127595238Y-98833333D01*
X127499999Y-98785714D01*
X127357142Y-98785714D01*
X127261904Y-98833333D01*
X127214285Y-98928571D01*
X127214285Y-99452380D01*
X126309523Y-98785714D02*
X126309523Y-99785714D01*
X126309523Y-99404761D02*
X126404761Y-99452380D01*
X126595238Y-99452380D01*
X126690476Y-99404761D01*
X126738095Y-99357142D01*
X126785714Y-99261904D01*
X126785714Y-98976190D01*
X126738095Y-98880952D01*
X126690476Y-98833333D01*
X126595238Y-98785714D01*
X126404761Y-98785714D01*
X126309523Y-98833333D01*
X125404761Y-99452380D02*
X125404761Y-98928571D01*
X125452380Y-98833333D01*
X125547619Y-98785714D01*
X125738095Y-98785714D01*
X125833333Y-98833333D01*
X125404761Y-99404761D02*
X125500000Y-99452380D01*
X125738095Y-99452380D01*
X125833333Y-99404761D01*
X125880952Y-99309523D01*
X125880952Y-99214285D01*
X125833333Y-99119047D01*
X125738095Y-99071428D01*
X125500000Y-99071428D01*
X125404761Y-99023809D01*
X124500000Y-98785714D02*
X124500000Y-99785714D01*
X124500000Y-99404761D02*
X124595238Y-99452380D01*
X124785714Y-99452380D01*
X124880952Y-99404761D01*
X124928571Y-99357142D01*
X124976190Y-99261904D01*
X124976190Y-98976190D01*
X124928571Y-98880952D01*
X124880952Y-98833333D01*
X124785714Y-98785714D01*
X124595238Y-98785714D01*
X124500000Y-98833333D01*
X123595238Y-99452380D02*
X123595238Y-98928571D01*
X123642857Y-98833333D01*
X123738095Y-98785714D01*
X123928571Y-98785714D01*
X124023809Y-98833333D01*
X123595238Y-99404761D02*
X123690476Y-99452380D01*
X123928571Y-99452380D01*
X124023809Y-99404761D01*
X124071428Y-99309523D01*
X124071428Y-99214285D01*
X124023809Y-99119047D01*
X123928571Y-99071428D01*
X123690476Y-99071428D01*
X123595238Y-99023809D01*
X122404761Y-98404761D02*
X123261904Y-99690476D01*
X122071428Y-99452380D02*
X122071428Y-98452380D01*
X121690476Y-98452380D01*
X121595238Y-98500000D01*
X121547619Y-98547619D01*
X121500000Y-98642857D01*
X121500000Y-98785714D01*
X121547619Y-98880952D01*
X121595238Y-98928571D01*
X121690476Y-98976190D01*
X122071428Y-98976190D01*
X120500000Y-99357142D02*
X120547619Y-99404761D01*
X120690476Y-99452380D01*
X120785714Y-99452380D01*
X120928571Y-99404761D01*
X121023809Y-99309523D01*
X121071428Y-99214285D01*
X121119047Y-99023809D01*
X121119047Y-98880952D01*
X121071428Y-98690476D01*
X121023809Y-98595238D01*
X120928571Y-98500000D01*
X120785714Y-98452380D01*
X120690476Y-98452380D01*
X120547619Y-98500000D01*
X120500000Y-98547619D01*
X119738095Y-98928571D02*
X119595238Y-98976190D01*
X119547619Y-99023809D01*
X119500000Y-99119047D01*
X119500000Y-99261904D01*
X119547619Y-99357142D01*
X119595238Y-99404761D01*
X119690476Y-99452380D01*
X120071428Y-99452380D01*
X120071428Y-98452380D01*
X119738095Y-98452380D01*
X119642857Y-98500000D01*
X119595238Y-98547619D01*
X119547619Y-98642857D01*
X119547619Y-98738095D01*
X119595238Y-98833333D01*
X119642857Y-98880952D01*
X119738095Y-98928571D01*
X120071428Y-98928571D01*
X119309523Y-99547619D02*
X118547619Y-99547619D01*
X117738095Y-99357142D02*
X117785714Y-99404761D01*
X117928571Y-99452380D01*
X118023809Y-99452380D01*
X118166666Y-99404761D01*
X118261904Y-99309523D01*
X118309523Y-99214285D01*
X118357142Y-99023809D01*
X118357142Y-98880952D01*
X118309523Y-98690476D01*
X118261904Y-98595238D01*
X118166666Y-98500000D01*
X118023809Y-98452380D01*
X117928571Y-98452380D01*
X117785714Y-98500000D01*
X117738095Y-98547619D01*
X117166666Y-99452380D02*
X117261904Y-99404761D01*
X117309523Y-99357142D01*
X117357142Y-99261904D01*
X117357142Y-98976190D01*
X117309523Y-98880952D01*
X117261904Y-98833333D01*
X117166666Y-98785714D01*
X117023809Y-98785714D01*
X116928571Y-98833333D01*
X116880952Y-98880952D01*
X116833333Y-98976190D01*
X116833333Y-99261904D01*
X116880952Y-99357142D01*
X116928571Y-99404761D01*
X117023809Y-99452380D01*
X117166666Y-99452380D01*
X116261904Y-99452380D02*
X116357142Y-99404761D01*
X116404761Y-99309523D01*
X116404761Y-98452380D01*
X115738095Y-99452380D02*
X115833333Y-99404761D01*
X115880952Y-99357142D01*
X115928571Y-99261904D01*
X115928571Y-98976190D01*
X115880952Y-98880952D01*
X115833333Y-98833333D01*
X115738095Y-98785714D01*
X115595238Y-98785714D01*
X115500000Y-98833333D01*
X115452380Y-98880952D01*
X115404761Y-98976190D01*
X115404761Y-99261904D01*
X115452380Y-99357142D01*
X115500000Y-99404761D01*
X115595238Y-99452380D01*
X115738095Y-99452380D01*
X114976190Y-99452380D02*
X114976190Y-98785714D01*
X114976190Y-98976190D02*
X114928571Y-98880952D01*
X114880952Y-98833333D01*
X114785714Y-98785714D01*
X114690476Y-98785714D01*
X114595238Y-99547619D02*
X113833333Y-99547619D01*
X113595238Y-99452380D02*
X113595238Y-98452380D01*
X113214285Y-98452380D01*
X113119047Y-98500000D01*
X113071428Y-98547619D01*
X113023809Y-98642857D01*
X113023809Y-98785714D01*
X113071428Y-98880952D01*
X113119047Y-98928571D01*
X113214285Y-98976190D01*
X113595238Y-98976190D01*
X112166666Y-99452380D02*
X112166666Y-98928571D01*
X112214285Y-98833333D01*
X112309523Y-98785714D01*
X112500000Y-98785714D01*
X112595238Y-98833333D01*
X112166666Y-99404761D02*
X112261904Y-99452380D01*
X112500000Y-99452380D01*
X112595238Y-99404761D01*
X112642857Y-99309523D01*
X112642857Y-99214285D01*
X112595238Y-99119047D01*
X112500000Y-99071428D01*
X112261904Y-99071428D01*
X112166666Y-99023809D01*
X111547619Y-99452380D02*
X111642857Y-99404761D01*
X111690476Y-99309523D01*
X111690476Y-98452380D01*
X110785714Y-99404761D02*
X110880952Y-99452380D01*
X111071428Y-99452380D01*
X111166666Y-99404761D01*
X111214285Y-99309523D01*
X111214285Y-98928571D01*
X111166666Y-98833333D01*
X111071428Y-98785714D01*
X110880952Y-98785714D01*
X110785714Y-98833333D01*
X110738095Y-98928571D01*
X110738095Y-99023809D01*
X111214285Y-99119047D01*
X110452380Y-98785714D02*
X110071428Y-98785714D01*
X110309523Y-98452380D02*
X110309523Y-99309523D01*
X110261904Y-99404761D01*
X110166666Y-99452380D01*
X110071428Y-99452380D01*
X109880952Y-98785714D02*
X109500000Y-98785714D01*
X109738095Y-98452380D02*
X109738095Y-99309523D01*
X109690476Y-99404761D01*
X109595238Y-99452380D01*
X109500000Y-99452380D01*
X108785714Y-99404761D02*
X108880952Y-99452380D01*
X109071428Y-99452380D01*
X109166666Y-99404761D01*
X109214285Y-99309523D01*
X109214285Y-98928571D01*
X109166666Y-98833333D01*
X109071428Y-98785714D01*
X108880952Y-98785714D01*
X108785714Y-98833333D01*
X108738095Y-98928571D01*
X108738095Y-99023809D01*
X109214285Y-99119047D01*
D12*
X146761904Y-94904761D02*
X146761904Y-93571428D01*
X146761904Y-93761904D02*
X146666666Y-93666666D01*
X146476190Y-93571428D01*
X146190476Y-93571428D01*
X146000000Y-93666666D01*
X145904761Y-93857142D01*
X145904761Y-94904761D01*
X145904761Y-93857142D02*
X145809523Y-93666666D01*
X145619047Y-93571428D01*
X145333333Y-93571428D01*
X145142857Y-93666666D01*
X145047619Y-93857142D01*
X145047619Y-94904761D01*
X143238095Y-94904761D02*
X143238095Y-93857142D01*
X143333333Y-93666666D01*
X143523809Y-93571428D01*
X143904761Y-93571428D01*
X144095238Y-93666666D01*
X143238095Y-94809523D02*
X143428571Y-94904761D01*
X143904761Y-94904761D01*
X144095238Y-94809523D01*
X144190476Y-94619047D01*
X144190476Y-94428571D01*
X144095238Y-94238095D01*
X143904761Y-94142857D01*
X143428571Y-94142857D01*
X143238095Y-94047619D01*
X142285714Y-94904761D02*
X142285714Y-93571428D01*
X142285714Y-93952380D02*
X142190476Y-93761904D01*
X142095238Y-93666666D01*
X141904761Y-93571428D01*
X141714285Y-93571428D01*
X140190476Y-94809523D02*
X140380952Y-94904761D01*
X140761904Y-94904761D01*
X140952380Y-94809523D01*
X141047619Y-94714285D01*
X141142857Y-94523809D01*
X141142857Y-93952380D01*
X141047619Y-93761904D01*
X140952380Y-93666666D01*
X140761904Y-93571428D01*
X140380952Y-93571428D01*
X140190476Y-93666666D01*
X139047619Y-94904761D02*
X139238095Y-94809523D01*
X139333333Y-94714285D01*
X139428571Y-94523809D01*
X139428571Y-93952380D01*
X139333333Y-93761904D01*
X139238095Y-93666666D01*
X139047619Y-93571428D01*
X138761904Y-93571428D01*
X138571428Y-93666666D01*
X138476190Y-93761904D01*
X138380952Y-93952380D01*
X138380952Y-94523809D01*
X138476190Y-94714285D01*
X138571428Y-94809523D01*
X138761904Y-94904761D01*
X139047619Y-94904761D01*
X137714285Y-93571428D02*
X137238095Y-94904761D01*
X136761904Y-93571428D01*
X135142857Y-94904761D02*
X135142857Y-93857142D01*
X135238095Y-93666666D01*
X135428571Y-93571428D01*
X135809523Y-93571428D01*
X136000000Y-93666666D01*
X135142857Y-94809523D02*
X135333333Y-94904761D01*
X135809523Y-94904761D01*
X136000000Y-94809523D01*
X136095238Y-94619047D01*
X136095238Y-94428571D01*
X136000000Y-94238095D01*
X135809523Y-94142857D01*
X135333333Y-94142857D01*
X135142857Y-94047619D01*
X134380952Y-93571428D02*
X133333333Y-93571428D01*
X134380952Y-94904761D01*
X133333333Y-94904761D01*
X132571428Y-94904761D02*
X132571428Y-93571428D01*
X132571428Y-93761904D02*
X132476190Y-93666666D01*
X132285714Y-93571428D01*
X132000000Y-93571428D01*
X131809523Y-93666666D01*
X131714285Y-93857142D01*
X131714285Y-94904761D01*
X131714285Y-93857142D02*
X131619047Y-93666666D01*
X131428571Y-93571428D01*
X131142857Y-93571428D01*
X130952380Y-93666666D01*
X130857142Y-93857142D01*
X130857142Y-94904761D01*
X129047619Y-94904761D02*
X129047619Y-93857142D01*
X129142857Y-93666666D01*
X129333333Y-93571428D01*
X129714285Y-93571428D01*
X129904761Y-93666666D01*
X129047619Y-94809523D02*
X129238095Y-94904761D01*
X129714285Y-94904761D01*
X129904761Y-94809523D01*
X130000000Y-94619047D01*
X130000000Y-94428571D01*
X129904761Y-94238095D01*
X129714285Y-94142857D01*
X129238095Y-94142857D01*
X129047619Y-94047619D01*
X127238095Y-94904761D02*
X127238095Y-92904761D01*
X127238095Y-94809523D02*
X127428571Y-94904761D01*
X127809523Y-94904761D01*
X128000000Y-94809523D01*
X128095238Y-94714285D01*
X128190476Y-94523809D01*
X128190476Y-93952380D01*
X128095238Y-93761904D01*
X128000000Y-93666666D01*
X127809523Y-93571428D01*
X127428571Y-93571428D01*
X127238095Y-93666666D01*
X125047619Y-93952380D02*
X125142857Y-93857142D01*
X125333333Y-93761904D01*
X125523809Y-93761904D01*
X125714285Y-93857142D01*
X125809523Y-93952380D01*
X125904761Y-94142857D01*
X125904761Y-94333333D01*
X125809523Y-94523809D01*
X125714285Y-94619047D01*
X125523809Y-94714285D01*
X125333333Y-94714285D01*
X125142857Y-94619047D01*
X125047619Y-94523809D01*
X125047619Y-93761904D02*
X125047619Y-94523809D01*
X124952380Y-94619047D01*
X124857142Y-94619047D01*
X124666666Y-94523809D01*
X124571428Y-94333333D01*
X124571428Y-93857142D01*
X124761904Y-93571428D01*
X125047619Y-93380952D01*
X125428571Y-93285714D01*
X125809523Y-93380952D01*
X126095238Y-93571428D01*
X126285714Y-93857142D01*
X126380952Y-94238095D01*
X126285714Y-94619047D01*
X126095238Y-94904761D01*
X125809523Y-95095238D01*
X125428571Y-95190476D01*
X125047619Y-95095238D01*
X124761904Y-94904761D01*
X122857142Y-93571428D02*
X122857142Y-95190476D01*
X122952380Y-95380952D01*
X123047619Y-95476190D01*
X123238095Y-95571428D01*
X123523809Y-95571428D01*
X123714285Y-95476190D01*
X122857142Y-94809523D02*
X123047619Y-94904761D01*
X123428571Y-94904761D01*
X123619047Y-94809523D01*
X123714285Y-94714285D01*
X123809523Y-94523809D01*
X123809523Y-93952380D01*
X123714285Y-93761904D01*
X123619047Y-93666666D01*
X123428571Y-93571428D01*
X123047619Y-93571428D01*
X122857142Y-93666666D01*
X121904761Y-94904761D02*
X121904761Y-93571428D01*
X121904761Y-93761904D02*
X121809523Y-93666666D01*
X121619047Y-93571428D01*
X121333333Y-93571428D01*
X121142857Y-93666666D01*
X121047619Y-93857142D01*
X121047619Y-94904761D01*
X121047619Y-93857142D02*
X120952380Y-93666666D01*
X120761904Y-93571428D01*
X120476190Y-93571428D01*
X120285714Y-93666666D01*
X120190476Y-93857142D01*
X120190476Y-94904761D01*
X118380952Y-94904761D02*
X118380952Y-93857142D01*
X118476190Y-93666666D01*
X118666666Y-93571428D01*
X119047619Y-93571428D01*
X119238095Y-93666666D01*
X118380952Y-94809523D02*
X118571428Y-94904761D01*
X119047619Y-94904761D01*
X119238095Y-94809523D01*
X119333333Y-94619047D01*
X119333333Y-94428571D01*
X119238095Y-94238095D01*
X119047619Y-94142857D01*
X118571428Y-94142857D01*
X118380952Y-94047619D01*
X117428571Y-94904761D02*
X117428571Y-93571428D01*
X117428571Y-92904761D02*
X117523809Y-93000000D01*
X117428571Y-93095238D01*
X117333333Y-93000000D01*
X117428571Y-92904761D01*
X117428571Y-93095238D01*
X116190476Y-94904761D02*
X116380952Y-94809523D01*
X116476190Y-94619047D01*
X116476190Y-92904761D01*
X115428571Y-94714285D02*
X115333333Y-94809523D01*
X115428571Y-94904761D01*
X115523809Y-94809523D01*
X115428571Y-94714285D01*
X115428571Y-94904761D01*
X113619047Y-94809523D02*
X113809523Y-94904761D01*
X114190476Y-94904761D01*
X114380952Y-94809523D01*
X114476190Y-94714285D01*
X114571428Y-94523809D01*
X114571428Y-93952380D01*
X114476190Y-93761904D01*
X114380952Y-93666666D01*
X114190476Y-93571428D01*
X113809523Y-93571428D01*
X113619047Y-93666666D01*
X112476190Y-94904761D02*
X112666666Y-94809523D01*
X112761904Y-94714285D01*
X112857142Y-94523809D01*
X112857142Y-93952380D01*
X112761904Y-93761904D01*
X112666666Y-93666666D01*
X112476190Y-93571428D01*
X112190476Y-93571428D01*
X112000000Y-93666666D01*
X111904761Y-93761904D01*
X111809523Y-93952380D01*
X111809523Y-94523809D01*
X111904761Y-94714285D01*
X112000000Y-94809523D01*
X112190476Y-94904761D01*
X112476190Y-94904761D01*
X110952380Y-94904761D02*
X110952380Y-93571428D01*
X110952380Y-93761904D02*
X110857142Y-93666666D01*
X110666666Y-93571428D01*
X110380952Y-93571428D01*
X110190476Y-93666666D01*
X110095238Y-93857142D01*
X110095238Y-94904761D01*
X110095238Y-93857142D02*
X110000000Y-93666666D01*
X109809523Y-93571428D01*
X109523809Y-93571428D01*
X109333333Y-93666666D01*
X109238095Y-93857142D01*
X109238095Y-94904761D01*
X148333333Y-90904761D02*
X148333333Y-88904761D01*
X147476190Y-90904761D02*
X147476190Y-89857142D01*
X147571428Y-89666666D01*
X147761904Y-89571428D01*
X148047619Y-89571428D01*
X148238095Y-89666666D01*
X148333333Y-89761904D01*
X146809523Y-89571428D02*
X146047619Y-89571428D01*
X146523809Y-88904761D02*
X146523809Y-90619047D01*
X146428571Y-90809523D01*
X146238095Y-90904761D01*
X146047619Y-90904761D01*
X145666666Y-89571428D02*
X144904761Y-89571428D01*
X145380952Y-88904761D02*
X145380952Y-90619047D01*
X145285714Y-90809523D01*
X145095238Y-90904761D01*
X144904761Y-90904761D01*
X144238095Y-89571428D02*
X144238095Y-91571428D01*
X144238095Y-89666666D02*
X144047619Y-89571428D01*
X143666666Y-89571428D01*
X143476190Y-89666666D01*
X143380952Y-89761904D01*
X143285714Y-89952380D01*
X143285714Y-90523809D01*
X143380952Y-90714285D01*
X143476190Y-90809523D01*
X143666666Y-90904761D01*
X144047619Y-90904761D01*
X144238095Y-90809523D01*
X142523809Y-90809523D02*
X142333333Y-90904761D01*
X141952380Y-90904761D01*
X141761904Y-90809523D01*
X141666666Y-90619047D01*
X141666666Y-90523809D01*
X141761904Y-90333333D01*
X141952380Y-90238095D01*
X142238095Y-90238095D01*
X142428571Y-90142857D01*
X142523809Y-89952380D01*
X142523809Y-89857142D01*
X142428571Y-89666666D01*
X142238095Y-89571428D01*
X141952380Y-89571428D01*
X141761904Y-89666666D01*
X140809523Y-90714285D02*
X140714285Y-90809523D01*
X140809523Y-90904761D01*
X140904761Y-90809523D01*
X140809523Y-90714285D01*
X140809523Y-90904761D01*
X140809523Y-89666666D02*
X140714285Y-89761904D01*
X140809523Y-89857142D01*
X140904761Y-89761904D01*
X140809523Y-89666666D01*
X140809523Y-89857142D01*
X138428571Y-88809523D02*
X140142857Y-91380952D01*
X136333333Y-88809523D02*
X138047619Y-91380952D01*
X135666666Y-90904761D02*
X135666666Y-89571428D01*
X135666666Y-89761904D02*
X135571428Y-89666666D01*
X135380952Y-89571428D01*
X135095238Y-89571428D01*
X134904761Y-89666666D01*
X134809523Y-89857142D01*
X134809523Y-90904761D01*
X134809523Y-89857142D02*
X134714285Y-89666666D01*
X134523809Y-89571428D01*
X134238095Y-89571428D01*
X134047619Y-89666666D01*
X133952380Y-89857142D01*
X133952380Y-90904761D01*
X132142857Y-90904761D02*
X132142857Y-89857142D01*
X132238095Y-89666666D01*
X132428571Y-89571428D01*
X132809523Y-89571428D01*
X133000000Y-89666666D01*
X132142857Y-90809523D02*
X132333333Y-90904761D01*
X132809523Y-90904761D01*
X133000000Y-90809523D01*
X133095238Y-90619047D01*
X133095238Y-90428571D01*
X133000000Y-90238095D01*
X132809523Y-90142857D01*
X132333333Y-90142857D01*
X132142857Y-90047619D01*
X131190476Y-90904761D02*
X131190476Y-89571428D01*
X131190476Y-89952380D02*
X131095238Y-89761904D01*
X131000000Y-89666666D01*
X130809523Y-89571428D01*
X130619047Y-89571428D01*
X129095238Y-90809523D02*
X129285714Y-90904761D01*
X129666666Y-90904761D01*
X129857142Y-90809523D01*
X129952380Y-90714285D01*
X130047619Y-90523809D01*
X130047619Y-89952380D01*
X129952380Y-89761904D01*
X129857142Y-89666666D01*
X129666666Y-89571428D01*
X129285714Y-89571428D01*
X129095238Y-89666666D01*
X127952380Y-90904761D02*
X128142857Y-90809523D01*
X128238095Y-90714285D01*
X128333333Y-90523809D01*
X128333333Y-89952380D01*
X128238095Y-89761904D01*
X128142857Y-89666666D01*
X127952380Y-89571428D01*
X127666666Y-89571428D01*
X127476190Y-89666666D01*
X127380952Y-89761904D01*
X127285714Y-89952380D01*
X127285714Y-90523809D01*
X127380952Y-90714285D01*
X127476190Y-90809523D01*
X127666666Y-90904761D01*
X127952380Y-90904761D01*
X126619047Y-89571428D02*
X126142857Y-90904761D01*
X125666666Y-89571428D01*
X124047619Y-90904761D02*
X124047619Y-89857142D01*
X124142857Y-89666666D01*
X124333333Y-89571428D01*
X124714285Y-89571428D01*
X124904761Y-89666666D01*
X124047619Y-90809523D02*
X124238095Y-90904761D01*
X124714285Y-90904761D01*
X124904761Y-90809523D01*
X125000000Y-90619047D01*
X125000000Y-90428571D01*
X124904761Y-90238095D01*
X124714285Y-90142857D01*
X124238095Y-90142857D01*
X124047619Y-90047619D01*
X123285714Y-89571428D02*
X122238095Y-89571428D01*
X123285714Y-90904761D01*
X122238095Y-90904761D01*
X120619047Y-89571428D02*
X120619047Y-91571428D01*
X120619047Y-90809523D02*
X120809523Y-90904761D01*
X121190476Y-90904761D01*
X121380952Y-90809523D01*
X121476190Y-90714285D01*
X121571428Y-90523809D01*
X121571428Y-89952380D01*
X121476190Y-89761904D01*
X121380952Y-89666666D01*
X121190476Y-89571428D01*
X120809523Y-89571428D01*
X120619047Y-89666666D01*
X118809523Y-89571428D02*
X118809523Y-90904761D01*
X119666666Y-89571428D02*
X119666666Y-90619047D01*
X119571428Y-90809523D01*
X119380952Y-90904761D01*
X119095238Y-90904761D01*
X118904761Y-90809523D01*
X118809523Y-90714285D01*
X117095238Y-90809523D02*
X117285714Y-90904761D01*
X117666666Y-90904761D01*
X117857142Y-90809523D01*
X117952380Y-90619047D01*
X117952380Y-89857142D01*
X117857142Y-89666666D01*
X117666666Y-89571428D01*
X117285714Y-89571428D01*
X117095238Y-89666666D01*
X117000000Y-89857142D01*
X117000000Y-90047619D01*
X117952380Y-90238095D01*
X116333333Y-89571428D02*
X115285714Y-89571428D01*
X116333333Y-90904761D01*
X115285714Y-90904761D01*
X114523809Y-90714285D02*
X114428571Y-90809523D01*
X114523809Y-90904761D01*
X114619047Y-90809523D01*
X114523809Y-90714285D01*
X114523809Y-90904761D01*
X113761904Y-90904761D02*
X112714285Y-89571428D01*
X113761904Y-89571428D02*
X112714285Y-90904761D01*
X112142857Y-89571428D02*
X111666666Y-90904761D01*
X111190476Y-89571428D02*
X111666666Y-90904761D01*
X111857142Y-91380952D01*
X111952380Y-91476190D01*
X112142857Y-91571428D01*
X110619047Y-89571428D02*
X109571428Y-89571428D01*
X110619047Y-90904761D01*
X109571428Y-90904761D01*
X107380952Y-88809523D02*
X109095238Y-91380952D01*
X135523809Y-85714285D02*
X135619047Y-85809523D01*
X135904761Y-85904761D01*
X136095238Y-85904761D01*
X136380952Y-85809523D01*
X136571428Y-85619047D01*
X136666666Y-85428571D01*
X136761904Y-85047619D01*
X136761904Y-84761904D01*
X136666666Y-84380952D01*
X136571428Y-84190476D01*
X136380952Y-84000000D01*
X136095238Y-83904761D01*
X135904761Y-83904761D01*
X135619047Y-84000000D01*
X135523809Y-84095238D01*
X134380952Y-85904761D02*
X134571428Y-85809523D01*
X134666666Y-85714285D01*
X134761904Y-85523809D01*
X134761904Y-84952380D01*
X134666666Y-84761904D01*
X134571428Y-84666666D01*
X134380952Y-84571428D01*
X134095238Y-84571428D01*
X133904761Y-84666666D01*
X133809523Y-84761904D01*
X133714285Y-84952380D01*
X133714285Y-85523809D01*
X133809523Y-85714285D01*
X133904761Y-85809523D01*
X134095238Y-85904761D01*
X134380952Y-85904761D01*
X132857142Y-84571428D02*
X132857142Y-85904761D01*
X132857142Y-84761904D02*
X132761904Y-84666666D01*
X132571428Y-84571428D01*
X132285714Y-84571428D01*
X132095238Y-84666666D01*
X132000000Y-84857142D01*
X132000000Y-85904761D01*
X131333333Y-84571428D02*
X130571428Y-84571428D01*
X131047619Y-83904761D02*
X131047619Y-85619047D01*
X130952380Y-85809523D01*
X130761904Y-85904761D01*
X130571428Y-85904761D01*
X129047619Y-85904761D02*
X129047619Y-84857142D01*
X129142857Y-84666666D01*
X129333333Y-84571428D01*
X129714285Y-84571428D01*
X129904761Y-84666666D01*
X129047619Y-85809523D02*
X129238095Y-85904761D01*
X129714285Y-85904761D01*
X129904761Y-85809523D01*
X130000000Y-85619047D01*
X130000000Y-85428571D01*
X129904761Y-85238095D01*
X129714285Y-85142857D01*
X129238095Y-85142857D01*
X129047619Y-85047619D01*
X127238095Y-85809523D02*
X127428571Y-85904761D01*
X127809523Y-85904761D01*
X128000000Y-85809523D01*
X128095238Y-85714285D01*
X128190476Y-85523809D01*
X128190476Y-84952380D01*
X128095238Y-84761904D01*
X128000000Y-84666666D01*
X127809523Y-84571428D01*
X127428571Y-84571428D01*
X127238095Y-84666666D01*
X126666666Y-84571428D02*
X125904761Y-84571428D01*
X126380952Y-83904761D02*
X126380952Y-85619047D01*
X126285714Y-85809523D01*
X126095238Y-85904761D01*
X125904761Y-85904761D01*
X123714285Y-85904761D02*
X123714285Y-84571428D01*
X123714285Y-84761904D02*
X123619047Y-84666666D01*
X123428571Y-84571428D01*
X123142857Y-84571428D01*
X122952380Y-84666666D01*
X122857142Y-84857142D01*
X122857142Y-85904761D01*
X122857142Y-84857142D02*
X122761904Y-84666666D01*
X122571428Y-84571428D01*
X122285714Y-84571428D01*
X122095238Y-84666666D01*
X122000000Y-84857142D01*
X122000000Y-85904761D01*
X120285714Y-85809523D02*
X120476190Y-85904761D01*
X120857142Y-85904761D01*
X121047619Y-85809523D01*
X121142857Y-85619047D01*
X121142857Y-84857142D01*
X121047619Y-84666666D01*
X120857142Y-84571428D01*
X120476190Y-84571428D01*
X120285714Y-84666666D01*
X120190476Y-84857142D01*
X120190476Y-85047619D01*
X121142857Y-85238095D01*
X119333333Y-85714285D02*
X119238095Y-85809523D01*
X119333333Y-85904761D01*
X119428571Y-85809523D01*
X119333333Y-85714285D01*
X119333333Y-85904761D01*
X119333333Y-84666666D02*
X119238095Y-84761904D01*
X119333333Y-84857142D01*
X119428571Y-84761904D01*
X119333333Y-84666666D01*
X119333333Y-84857142D01*
D13*
%TO.C,G\u002A\u002A\u002A*%
G36*
X121913715Y-106669715D02*
G01*
X121913715Y-103113715D01*
X118865715Y-103113715D01*
X118865715Y-103621715D01*
X121405715Y-103621715D01*
X121405715Y-106161715D01*
X118865715Y-106161715D01*
X118865715Y-103621715D01*
X118865715Y-103113715D01*
X118357715Y-103113715D01*
X118357715Y-106669715D01*
X121913715Y-106669715D01*
G37*
X121913715Y-106669715D02*
X121913715Y-103113715D01*
X118865715Y-103113715D01*
X118865715Y-103621715D01*
X121405715Y-103621715D01*
X121405715Y-106161715D01*
X118865715Y-106161715D01*
X118865715Y-103621715D01*
X118865715Y-103113715D01*
X118357715Y-103113715D01*
X118357715Y-106669715D01*
X121913715Y-106669715D01*
G36*
X117341715Y-107177715D02*
G01*
X117341715Y-106923715D01*
X117352949Y-106753476D01*
X117416331Y-106683660D01*
X117576381Y-106669746D01*
X117595715Y-106669715D01*
X117849715Y-106669715D01*
X117849715Y-105653715D01*
X117595715Y-105653715D01*
X117425476Y-105642480D01*
X117355660Y-105579098D01*
X117341746Y-105419048D01*
X117341715Y-105399715D01*
X117330480Y-105229476D01*
X117267098Y-105159660D01*
X117107048Y-105145746D01*
X117087715Y-105145715D01*
X117087715Y-106161715D01*
X117257953Y-106172949D01*
X117327770Y-106236331D01*
X117341683Y-106396381D01*
X117341715Y-106415715D01*
X117330480Y-106585953D01*
X117267098Y-106655770D01*
X117107048Y-106669683D01*
X117087715Y-106669715D01*
X116917476Y-106658480D01*
X116847660Y-106595098D01*
X116833746Y-106435048D01*
X116833715Y-106415715D01*
X116844949Y-106245476D01*
X116908331Y-106175660D01*
X117068381Y-106161746D01*
X117087715Y-106161715D01*
X117087715Y-105145715D01*
X116833715Y-105145715D01*
X116833715Y-103621715D01*
X117087715Y-103621715D01*
X117257953Y-103610480D01*
X117327770Y-103547098D01*
X117341683Y-103387048D01*
X117341715Y-103367715D01*
X117330480Y-103197476D01*
X117267098Y-103127660D01*
X117107048Y-103113746D01*
X117087715Y-103113715D01*
X116917476Y-103124949D01*
X116847660Y-103188331D01*
X116833746Y-103348381D01*
X116833715Y-103367715D01*
X116822480Y-103537953D01*
X116759098Y-103607770D01*
X116599048Y-103621683D01*
X116579715Y-103621715D01*
X116325715Y-103621715D01*
X116325715Y-107177715D01*
X117341715Y-107177715D01*
G37*
X117341715Y-107177715D02*
X117341715Y-106923715D01*
X117352949Y-106753476D01*
X117416331Y-106683660D01*
X117576381Y-106669746D01*
X117595715Y-106669715D01*
X117849715Y-106669715D01*
X117849715Y-105653715D01*
X117595715Y-105653715D01*
X117425476Y-105642480D01*
X117355660Y-105579098D01*
X117341746Y-105419048D01*
X117341715Y-105399715D01*
X117330480Y-105229476D01*
X117267098Y-105159660D01*
X117107048Y-105145746D01*
X117087715Y-105145715D01*
X117087715Y-106161715D01*
X117257953Y-106172949D01*
X117327770Y-106236331D01*
X117341683Y-106396381D01*
X117341715Y-106415715D01*
X117330480Y-106585953D01*
X117267098Y-106655770D01*
X117107048Y-106669683D01*
X117087715Y-106669715D01*
X116917476Y-106658480D01*
X116847660Y-106595098D01*
X116833746Y-106435048D01*
X116833715Y-106415715D01*
X116844949Y-106245476D01*
X116908331Y-106175660D01*
X117068381Y-106161746D01*
X117087715Y-106161715D01*
X117087715Y-105145715D01*
X116833715Y-105145715D01*
X116833715Y-103621715D01*
X117087715Y-103621715D01*
X117257953Y-103610480D01*
X117327770Y-103547098D01*
X117341683Y-103387048D01*
X117341715Y-103367715D01*
X117330480Y-103197476D01*
X117267098Y-103127660D01*
X117107048Y-103113746D01*
X117087715Y-103113715D01*
X116917476Y-103124949D01*
X116847660Y-103188331D01*
X116833746Y-103348381D01*
X116833715Y-103367715D01*
X116822480Y-103537953D01*
X116759098Y-103607770D01*
X116599048Y-103621683D01*
X116579715Y-103621715D01*
X116325715Y-103621715D01*
X116325715Y-107177715D01*
X117341715Y-107177715D01*
G36*
X111245715Y-107685715D02*
G01*
X111499715Y-107685715D01*
X111669953Y-107674480D01*
X111739770Y-107611098D01*
X111753683Y-107451048D01*
X111753715Y-107431715D01*
X111753715Y-107177715D01*
X110229715Y-107177715D01*
X110229715Y-107431715D01*
X110218480Y-107601953D01*
X110155098Y-107671770D01*
X109995048Y-107685683D01*
X109975715Y-107685715D01*
X109805476Y-107674480D01*
X109735660Y-107611098D01*
X109721746Y-107451048D01*
X109721715Y-107431715D01*
X109710480Y-107261476D01*
X109647098Y-107191660D01*
X109487048Y-107177746D01*
X109467715Y-107177715D01*
X109297476Y-107188949D01*
X109227660Y-107252331D01*
X109213746Y-107412381D01*
X109213715Y-107431715D01*
X109224949Y-107601953D01*
X109288331Y-107671770D01*
X109448381Y-107685683D01*
X109467715Y-107685715D01*
X109637953Y-107696949D01*
X109707770Y-107760331D01*
X109721683Y-107920381D01*
X109721715Y-107939715D01*
X109710480Y-108109953D01*
X109647098Y-108179770D01*
X109487048Y-108193683D01*
X109467715Y-108193715D01*
X109297476Y-108204949D01*
X109227660Y-108268331D01*
X109213746Y-108428381D01*
X109213715Y-108447715D01*
X109224949Y-108617953D01*
X109288331Y-108687770D01*
X109448381Y-108701683D01*
X109467715Y-108701715D01*
X109637953Y-108712949D01*
X109707770Y-108776331D01*
X109721683Y-108936381D01*
X109721715Y-108955715D01*
X109710480Y-109125953D01*
X109647098Y-109195770D01*
X109487048Y-109209683D01*
X109467715Y-109209715D01*
X109297476Y-109220949D01*
X109227660Y-109284331D01*
X109213746Y-109444381D01*
X109213715Y-109463715D01*
X109213715Y-109717715D01*
X110229715Y-109717715D01*
X110229715Y-108701715D01*
X111245715Y-108701715D01*
X111245715Y-107685715D01*
G37*
X111245715Y-107685715D02*
X111499715Y-107685715D01*
X111669953Y-107674480D01*
X111739770Y-107611098D01*
X111753683Y-107451048D01*
X111753715Y-107431715D01*
X111753715Y-107177715D01*
X110229715Y-107177715D01*
X110229715Y-107431715D01*
X110218480Y-107601953D01*
X110155098Y-107671770D01*
X109995048Y-107685683D01*
X109975715Y-107685715D01*
X109805476Y-107674480D01*
X109735660Y-107611098D01*
X109721746Y-107451048D01*
X109721715Y-107431715D01*
X109710480Y-107261476D01*
X109647098Y-107191660D01*
X109487048Y-107177746D01*
X109467715Y-107177715D01*
X109297476Y-107188949D01*
X109227660Y-107252331D01*
X109213746Y-107412381D01*
X109213715Y-107431715D01*
X109224949Y-107601953D01*
X109288331Y-107671770D01*
X109448381Y-107685683D01*
X109467715Y-107685715D01*
X109637953Y-107696949D01*
X109707770Y-107760331D01*
X109721683Y-107920381D01*
X109721715Y-107939715D01*
X109710480Y-108109953D01*
X109647098Y-108179770D01*
X109487048Y-108193683D01*
X109467715Y-108193715D01*
X109297476Y-108204949D01*
X109227660Y-108268331D01*
X109213746Y-108428381D01*
X109213715Y-108447715D01*
X109224949Y-108617953D01*
X109288331Y-108687770D01*
X109448381Y-108701683D01*
X109467715Y-108701715D01*
X109637953Y-108712949D01*
X109707770Y-108776331D01*
X109721683Y-108936381D01*
X109721715Y-108955715D01*
X109710480Y-109125953D01*
X109647098Y-109195770D01*
X109487048Y-109209683D01*
X109467715Y-109209715D01*
X109297476Y-109220949D01*
X109227660Y-109284331D01*
X109213746Y-109444381D01*
X109213715Y-109463715D01*
X109213715Y-109717715D01*
X110229715Y-109717715D01*
X110229715Y-108701715D01*
X111245715Y-108701715D01*
X111245715Y-107685715D01*
G36*
X115817715Y-107177715D02*
G01*
X115817715Y-105145715D01*
X114801715Y-105145715D01*
X114801715Y-104891715D01*
X114790480Y-104721476D01*
X114727098Y-104651660D01*
X114567048Y-104637746D01*
X114547715Y-104637715D01*
X114377476Y-104626480D01*
X114307660Y-104563098D01*
X114293746Y-104403048D01*
X114293715Y-104383715D01*
X114282480Y-104213476D01*
X114219098Y-104143660D01*
X114059048Y-104129746D01*
X114039715Y-104129715D01*
X114039715Y-104637715D01*
X114209953Y-104648949D01*
X114279770Y-104712331D01*
X114293683Y-104872381D01*
X114293715Y-104891715D01*
X114304949Y-105061953D01*
X114368331Y-105131770D01*
X114528381Y-105145683D01*
X114547715Y-105145715D01*
X114717953Y-105156949D01*
X114787770Y-105220331D01*
X114801683Y-105380381D01*
X114801715Y-105399715D01*
X114812949Y-105569953D01*
X114876331Y-105639770D01*
X115036381Y-105653683D01*
X115055715Y-105653715D01*
X115309715Y-105653715D01*
X115309715Y-106669715D01*
X114801715Y-106669715D01*
X114801715Y-105653715D01*
X114547715Y-105653715D01*
X114377476Y-105642480D01*
X114307660Y-105579098D01*
X114293746Y-105419048D01*
X114293715Y-105399715D01*
X114282480Y-105229476D01*
X114219098Y-105159660D01*
X114059048Y-105145746D01*
X114039715Y-105145715D01*
X113869476Y-105134480D01*
X113799660Y-105071098D01*
X113785746Y-104911048D01*
X113785715Y-104891715D01*
X113796949Y-104721476D01*
X113860331Y-104651660D01*
X114020381Y-104637746D01*
X114039715Y-104637715D01*
X114039715Y-104129715D01*
X113785715Y-104129715D01*
X113785715Y-103113715D01*
X113277715Y-103113715D01*
X113277715Y-105145715D01*
X113531715Y-105145715D01*
X113701953Y-105156949D01*
X113771770Y-105220331D01*
X113785683Y-105380381D01*
X113785715Y-105399715D01*
X113796949Y-105569953D01*
X113860331Y-105639770D01*
X114020381Y-105653683D01*
X114039715Y-105653715D01*
X114293715Y-105653715D01*
X114293715Y-107177715D01*
X114547715Y-107177715D01*
X114717953Y-107188949D01*
X114787770Y-107252331D01*
X114801683Y-107412381D01*
X114801715Y-107431715D01*
X114790480Y-107601953D01*
X114727098Y-107671770D01*
X114567048Y-107685683D01*
X114547715Y-107685715D01*
X114377476Y-107696949D01*
X114307660Y-107760331D01*
X114293746Y-107920381D01*
X114293715Y-107939715D01*
X114293715Y-108193715D01*
X114039715Y-108193715D01*
X114039715Y-108701715D01*
X114209953Y-108712949D01*
X114279770Y-108776331D01*
X114293683Y-108936381D01*
X114293715Y-108955715D01*
X114282480Y-109125953D01*
X114219098Y-109195770D01*
X114059048Y-109209683D01*
X114039715Y-109209715D01*
X113869476Y-109198480D01*
X113799660Y-109135098D01*
X113785746Y-108975048D01*
X113785715Y-108955715D01*
X113796949Y-108785476D01*
X113860331Y-108715660D01*
X114020381Y-108701746D01*
X114039715Y-108701715D01*
X114039715Y-108193715D01*
X112261715Y-108193715D01*
X112261715Y-108701715D01*
X113277715Y-108701715D01*
X113277715Y-109209715D01*
X112261715Y-109209715D01*
X112261715Y-109717715D01*
X113785715Y-109717715D01*
X113785715Y-109971715D01*
X113774480Y-110141953D01*
X113711098Y-110211770D01*
X113551048Y-110225683D01*
X113531715Y-110225715D01*
X113361476Y-110236949D01*
X113291660Y-110300331D01*
X113277746Y-110460381D01*
X113277715Y-110479715D01*
X113266480Y-110649953D01*
X113203098Y-110719770D01*
X113043048Y-110733683D01*
X113023715Y-110733715D01*
X112853476Y-110744949D01*
X112783660Y-110808331D01*
X112769746Y-110968381D01*
X112769715Y-110987715D01*
X112769715Y-111241715D01*
X111753715Y-111241715D01*
X111753715Y-110733715D01*
X112769715Y-110733715D01*
X112769715Y-110479715D01*
X112758480Y-110309476D01*
X112695098Y-110239660D01*
X112535048Y-110225746D01*
X112515715Y-110225715D01*
X112345476Y-110214480D01*
X112275660Y-110151098D01*
X112261746Y-109991048D01*
X112261715Y-109971715D01*
X112250480Y-109801476D01*
X112187098Y-109731660D01*
X112027048Y-109717746D01*
X112007715Y-109717715D01*
X111837476Y-109728949D01*
X111767660Y-109792331D01*
X111753746Y-109952381D01*
X111753715Y-109971715D01*
X111742480Y-110141953D01*
X111679098Y-110211770D01*
X111519048Y-110225683D01*
X111499715Y-110225715D01*
X111329476Y-110214480D01*
X111259660Y-110151098D01*
X111245746Y-109991048D01*
X111245715Y-109971715D01*
X111256949Y-109801476D01*
X111320331Y-109731660D01*
X111480381Y-109717746D01*
X111499715Y-109717715D01*
X111669953Y-109706480D01*
X111739770Y-109643098D01*
X111753683Y-109483048D01*
X111753715Y-109463715D01*
X111764949Y-109293476D01*
X111828331Y-109223660D01*
X111988381Y-109209746D01*
X112007715Y-109209715D01*
X112177953Y-109198480D01*
X112247770Y-109135098D01*
X112261683Y-108975048D01*
X112261715Y-108955715D01*
X112261715Y-108701715D01*
X112261715Y-108193715D01*
X111753715Y-108193715D01*
X111753715Y-108447715D01*
X111742480Y-108617953D01*
X111679098Y-108687770D01*
X111519048Y-108701683D01*
X111499715Y-108701715D01*
X111245715Y-108701715D01*
X111245715Y-108955715D01*
X111234480Y-109125953D01*
X111171098Y-109195770D01*
X111011048Y-109209683D01*
X110991715Y-109209715D01*
X110821476Y-109220949D01*
X110751660Y-109284331D01*
X110737746Y-109444381D01*
X110737715Y-109463715D01*
X110726480Y-109633953D01*
X110663098Y-109703770D01*
X110503048Y-109717683D01*
X110483715Y-109717715D01*
X110229715Y-109717715D01*
X110229715Y-110733715D01*
X110483715Y-110733715D01*
X110653953Y-110744949D01*
X110723770Y-110808331D01*
X110737683Y-110968381D01*
X110737715Y-110987715D01*
X110737715Y-111241715D01*
X109213715Y-111241715D01*
X109213715Y-111749715D01*
X112769715Y-111749715D01*
X112769715Y-111241715D01*
X113785715Y-111241715D01*
X113785715Y-111495715D01*
X113774480Y-111665953D01*
X113711098Y-111735770D01*
X113551048Y-111749683D01*
X113531715Y-111749715D01*
X113361476Y-111760949D01*
X113291660Y-111824331D01*
X113277746Y-111984381D01*
X113277715Y-112003715D01*
X113288949Y-112173953D01*
X113352331Y-112243770D01*
X113512381Y-112257683D01*
X113531715Y-112257715D01*
X113701953Y-112246480D01*
X113771770Y-112183098D01*
X113785683Y-112023048D01*
X113785715Y-112003715D01*
X113796949Y-111833476D01*
X113860331Y-111763660D01*
X114020381Y-111749746D01*
X114039715Y-111749715D01*
X114209953Y-111760949D01*
X114279770Y-111824331D01*
X114293683Y-111984381D01*
X114293715Y-112003715D01*
X114293715Y-112257715D01*
X115309715Y-112257715D01*
X115309715Y-112511715D01*
X115320949Y-112681953D01*
X115384331Y-112751770D01*
X115544381Y-112765683D01*
X115563715Y-112765715D01*
X115733953Y-112776949D01*
X115803770Y-112840331D01*
X115817683Y-113000381D01*
X115817715Y-113019715D01*
X115817715Y-113273715D01*
X115309715Y-113273715D01*
X115309715Y-113781715D01*
X117341715Y-113781715D01*
X117341715Y-115305715D01*
X116833715Y-115305715D01*
X116833715Y-114289715D01*
X116325715Y-114289715D01*
X116325715Y-115305715D01*
X115817715Y-115305715D01*
X115817715Y-114289715D01*
X115563715Y-114289715D01*
X115393476Y-114278480D01*
X115323660Y-114215098D01*
X115309746Y-114055048D01*
X115309715Y-114035715D01*
X115309715Y-113781715D01*
X115309715Y-113273715D01*
X114801715Y-113273715D01*
X114801715Y-112765715D01*
X113785715Y-112765715D01*
X113785715Y-113019715D01*
X113774480Y-113189953D01*
X113711098Y-113259770D01*
X113551048Y-113273683D01*
X113531715Y-113273715D01*
X113277715Y-113273715D01*
X113277715Y-114797715D01*
X113531715Y-114797715D01*
X113701953Y-114808949D01*
X113771770Y-114872331D01*
X113785683Y-115032381D01*
X113785715Y-115051715D01*
X113774480Y-115221953D01*
X113711098Y-115291770D01*
X113551048Y-115305683D01*
X113531715Y-115305715D01*
X113361476Y-115316949D01*
X113291660Y-115380331D01*
X113277746Y-115540381D01*
X113277715Y-115559715D01*
X113288949Y-115729953D01*
X113352331Y-115799770D01*
X113512381Y-115813683D01*
X113531715Y-115813715D01*
X113701953Y-115802480D01*
X113771770Y-115739098D01*
X113785683Y-115579048D01*
X113785715Y-115559715D01*
X113796949Y-115389476D01*
X113860331Y-115319660D01*
X114020381Y-115305746D01*
X114039715Y-115305715D01*
X114209953Y-115294480D01*
X114279770Y-115231098D01*
X114293683Y-115071048D01*
X114293715Y-115051715D01*
X114282480Y-114881476D01*
X114219098Y-114811660D01*
X114059048Y-114797746D01*
X114039715Y-114797715D01*
X113785715Y-114797715D01*
X113785715Y-113273715D01*
X114039715Y-113273715D01*
X114209953Y-113284949D01*
X114279770Y-113348331D01*
X114293683Y-113508381D01*
X114293715Y-113527715D01*
X114304949Y-113697953D01*
X114368331Y-113767770D01*
X114528381Y-113781683D01*
X114547715Y-113781715D01*
X114801715Y-113781715D01*
X114801715Y-114797715D01*
X115309715Y-114797715D01*
X115309715Y-115813715D01*
X116325715Y-115813715D01*
X116325715Y-115559715D01*
X116336949Y-115389476D01*
X116400331Y-115319660D01*
X116560381Y-115305746D01*
X116579715Y-115305715D01*
X116749953Y-115316949D01*
X116819770Y-115380331D01*
X116833683Y-115540381D01*
X116833715Y-115559715D01*
X116833715Y-115813715D01*
X118865715Y-115813715D01*
X118865715Y-114289715D01*
X118103715Y-114289715D01*
X118103715Y-114797715D01*
X118273953Y-114808949D01*
X118343770Y-114872331D01*
X118357683Y-115032381D01*
X118357715Y-115051715D01*
X118346480Y-115221953D01*
X118283098Y-115291770D01*
X118123048Y-115305683D01*
X118103715Y-115305715D01*
X117933476Y-115294480D01*
X117863660Y-115231098D01*
X117849746Y-115071048D01*
X117849715Y-115051715D01*
X117860949Y-114881476D01*
X117924331Y-114811660D01*
X118084381Y-114797746D01*
X118103715Y-114797715D01*
X118103715Y-114289715D01*
X117849715Y-114289715D01*
X117849715Y-113781715D01*
X119373715Y-113781715D01*
X119373715Y-114035715D01*
X119384949Y-114205953D01*
X119448331Y-114275770D01*
X119608381Y-114289683D01*
X119627715Y-114289715D01*
X119881715Y-114289715D01*
X119881715Y-115305715D01*
X119627715Y-115305715D01*
X119457476Y-115316949D01*
X119387660Y-115380331D01*
X119373746Y-115540381D01*
X119373715Y-115559715D01*
X119373715Y-115813715D01*
X120389715Y-115813715D01*
X120389715Y-115559715D01*
X120400949Y-115389476D01*
X120464331Y-115319660D01*
X120624381Y-115305746D01*
X120643715Y-115305715D01*
X120813953Y-115294480D01*
X120883770Y-115231098D01*
X120897683Y-115071048D01*
X120897715Y-115051715D01*
X120908949Y-114881476D01*
X120972331Y-114811660D01*
X121132381Y-114797746D01*
X121151715Y-114797715D01*
X121405715Y-114797715D01*
X121405715Y-115813715D01*
X121913715Y-115813715D01*
X121913715Y-112765715D01*
X121659715Y-112765715D01*
X121489476Y-112776949D01*
X121419660Y-112840331D01*
X121405746Y-113000381D01*
X121405715Y-113019715D01*
X121405715Y-113273715D01*
X120389715Y-113273715D01*
X120389715Y-113781715D01*
X121405715Y-113781715D01*
X121405715Y-114289715D01*
X120389715Y-114289715D01*
X120389715Y-113781715D01*
X120389715Y-113273715D01*
X119881715Y-113273715D01*
X119881715Y-112765715D01*
X120897715Y-112765715D01*
X120897715Y-110733715D01*
X121913715Y-110733715D01*
X121913715Y-109717715D01*
X120897715Y-109717715D01*
X120897715Y-109971715D01*
X120886480Y-110141953D01*
X120823098Y-110211770D01*
X120663048Y-110225683D01*
X120643715Y-110225715D01*
X120389715Y-110225715D01*
X120389715Y-109209715D01*
X121913715Y-109209715D01*
X121913715Y-108955715D01*
X121902480Y-108785476D01*
X121839098Y-108715660D01*
X121679048Y-108701746D01*
X121659715Y-108701715D01*
X121489476Y-108690480D01*
X121419660Y-108627098D01*
X121405746Y-108467048D01*
X121405715Y-108447715D01*
X121394480Y-108277476D01*
X121331098Y-108207660D01*
X121171048Y-108193746D01*
X121151715Y-108193715D01*
X120981476Y-108182480D01*
X120911660Y-108119098D01*
X120897746Y-107959048D01*
X120897715Y-107939715D01*
X120897715Y-107685715D01*
X121913715Y-107685715D01*
X121913715Y-107177715D01*
X119881715Y-107177715D01*
X119881715Y-107685715D01*
X119881715Y-108193715D01*
X120897715Y-108193715D01*
X120897715Y-108701715D01*
X119881715Y-108701715D01*
X119881715Y-108193715D01*
X119881715Y-107685715D01*
X118865715Y-107685715D01*
X118865715Y-107939715D01*
X118854480Y-108109953D01*
X118791098Y-108179770D01*
X118631048Y-108193683D01*
X118611715Y-108193715D01*
X118357715Y-108193715D01*
X118357715Y-107177715D01*
X117341715Y-107177715D01*
X117341715Y-108701715D01*
X118865715Y-108701715D01*
X118865715Y-108447715D01*
X118876949Y-108277476D01*
X118940331Y-108207660D01*
X119100381Y-108193746D01*
X119119715Y-108193715D01*
X119373715Y-108193715D01*
X119373715Y-109209715D01*
X119881715Y-109209715D01*
X119881715Y-110225715D01*
X119373715Y-110225715D01*
X119373715Y-110733715D01*
X120389715Y-110733715D01*
X120389715Y-111241715D01*
X119373715Y-111241715D01*
X119373715Y-110733715D01*
X119373715Y-110225715D01*
X118865715Y-110225715D01*
X118865715Y-111241715D01*
X118357715Y-111241715D01*
X118357715Y-110225715D01*
X117849715Y-110225715D01*
X117849715Y-111241715D01*
X117849715Y-111749715D01*
X119373715Y-111749715D01*
X119373715Y-113273715D01*
X117849715Y-113273715D01*
X117849715Y-111749715D01*
X117849715Y-111241715D01*
X116325715Y-111241715D01*
X116325715Y-110987715D01*
X116336949Y-110817476D01*
X116400331Y-110747660D01*
X116560381Y-110733746D01*
X116579715Y-110733715D01*
X116749953Y-110722480D01*
X116819770Y-110659098D01*
X116833683Y-110499048D01*
X116833715Y-110479715D01*
X116822480Y-110309476D01*
X116759098Y-110239660D01*
X116599048Y-110225746D01*
X116579715Y-110225715D01*
X116325715Y-110225715D01*
X116325715Y-109209715D01*
X117341715Y-109209715D01*
X117341715Y-108955715D01*
X117330480Y-108785476D01*
X117267098Y-108715660D01*
X117107048Y-108701746D01*
X117087715Y-108701715D01*
X116833715Y-108701715D01*
X116833715Y-107685715D01*
X116325715Y-107685715D01*
X116325715Y-108701715D01*
X116071715Y-108701715D01*
X115901476Y-108712949D01*
X115831660Y-108776331D01*
X115817746Y-108936381D01*
X115817715Y-108955715D01*
X115806480Y-109125953D01*
X115743098Y-109195770D01*
X115583048Y-109209683D01*
X115563715Y-109209715D01*
X115393476Y-109220949D01*
X115323660Y-109284331D01*
X115309746Y-109444381D01*
X115309715Y-109463715D01*
X115298480Y-109633953D01*
X115235098Y-109703770D01*
X115075048Y-109717683D01*
X115055715Y-109717715D01*
X114801715Y-109717715D01*
X114801715Y-110225715D01*
X115817715Y-110225715D01*
X115817715Y-110479715D01*
X115806480Y-110649953D01*
X115743098Y-110719770D01*
X115583048Y-110733683D01*
X115563715Y-110733715D01*
X115393476Y-110744949D01*
X115323660Y-110808331D01*
X115309746Y-110968381D01*
X115309715Y-110987715D01*
X115320949Y-111157953D01*
X115384331Y-111227770D01*
X115544381Y-111241683D01*
X115563715Y-111241715D01*
X115733953Y-111252949D01*
X115803770Y-111316331D01*
X115817683Y-111476381D01*
X115817715Y-111495715D01*
X115817715Y-111749715D01*
X117341715Y-111749715D01*
X117341715Y-112765715D01*
X117087715Y-112765715D01*
X116917476Y-112776949D01*
X116847660Y-112840331D01*
X116833746Y-113000381D01*
X116833715Y-113019715D01*
X116822480Y-113189953D01*
X116759098Y-113259770D01*
X116599048Y-113273683D01*
X116579715Y-113273715D01*
X116325715Y-113273715D01*
X116325715Y-112257715D01*
X116071715Y-112257715D01*
X115901476Y-112246480D01*
X115831660Y-112183098D01*
X115817746Y-112023048D01*
X115817715Y-112003715D01*
X115806480Y-111833476D01*
X115743098Y-111763660D01*
X115583048Y-111749746D01*
X115563715Y-111749715D01*
X115393476Y-111738480D01*
X115323660Y-111675098D01*
X115309746Y-111515048D01*
X115309715Y-111495715D01*
X115309715Y-111241715D01*
X113785715Y-111241715D01*
X113785715Y-110733715D01*
X114801715Y-110733715D01*
X114801715Y-110225715D01*
X114801715Y-109717715D01*
X114801715Y-108701715D01*
X115817715Y-108701715D01*
X115817715Y-107685715D01*
X115563715Y-107685715D01*
X115393476Y-107674480D01*
X115323660Y-107611098D01*
X115309746Y-107451048D01*
X115309715Y-107431715D01*
X115320949Y-107261476D01*
X115384331Y-107191660D01*
X115544381Y-107177746D01*
X115563715Y-107177715D01*
X115733953Y-107188949D01*
X115803770Y-107252331D01*
X115817683Y-107412381D01*
X115817715Y-107431715D01*
X115828949Y-107601953D01*
X115892331Y-107671770D01*
X116052381Y-107685683D01*
X116071715Y-107685715D01*
X116241953Y-107674480D01*
X116311770Y-107611098D01*
X116325683Y-107451048D01*
X116325715Y-107431715D01*
X116325715Y-107177715D01*
X115817715Y-107177715D01*
G37*
X115817715Y-107177715D02*
X115817715Y-105145715D01*
X114801715Y-105145715D01*
X114801715Y-104891715D01*
X114790480Y-104721476D01*
X114727098Y-104651660D01*
X114567048Y-104637746D01*
X114547715Y-104637715D01*
X114377476Y-104626480D01*
X114307660Y-104563098D01*
X114293746Y-104403048D01*
X114293715Y-104383715D01*
X114282480Y-104213476D01*
X114219098Y-104143660D01*
X114059048Y-104129746D01*
X114039715Y-104129715D01*
X114039715Y-104637715D01*
X114209953Y-104648949D01*
X114279770Y-104712331D01*
X114293683Y-104872381D01*
X114293715Y-104891715D01*
X114304949Y-105061953D01*
X114368331Y-105131770D01*
X114528381Y-105145683D01*
X114547715Y-105145715D01*
X114717953Y-105156949D01*
X114787770Y-105220331D01*
X114801683Y-105380381D01*
X114801715Y-105399715D01*
X114812949Y-105569953D01*
X114876331Y-105639770D01*
X115036381Y-105653683D01*
X115055715Y-105653715D01*
X115309715Y-105653715D01*
X115309715Y-106669715D01*
X114801715Y-106669715D01*
X114801715Y-105653715D01*
X114547715Y-105653715D01*
X114377476Y-105642480D01*
X114307660Y-105579098D01*
X114293746Y-105419048D01*
X114293715Y-105399715D01*
X114282480Y-105229476D01*
X114219098Y-105159660D01*
X114059048Y-105145746D01*
X114039715Y-105145715D01*
X113869476Y-105134480D01*
X113799660Y-105071098D01*
X113785746Y-104911048D01*
X113785715Y-104891715D01*
X113796949Y-104721476D01*
X113860331Y-104651660D01*
X114020381Y-104637746D01*
X114039715Y-104637715D01*
X114039715Y-104129715D01*
X113785715Y-104129715D01*
X113785715Y-103113715D01*
X113277715Y-103113715D01*
X113277715Y-105145715D01*
X113531715Y-105145715D01*
X113701953Y-105156949D01*
X113771770Y-105220331D01*
X113785683Y-105380381D01*
X113785715Y-105399715D01*
X113796949Y-105569953D01*
X113860331Y-105639770D01*
X114020381Y-105653683D01*
X114039715Y-105653715D01*
X114293715Y-105653715D01*
X114293715Y-107177715D01*
X114547715Y-107177715D01*
X114717953Y-107188949D01*
X114787770Y-107252331D01*
X114801683Y-107412381D01*
X114801715Y-107431715D01*
X114790480Y-107601953D01*
X114727098Y-107671770D01*
X114567048Y-107685683D01*
X114547715Y-107685715D01*
X114377476Y-107696949D01*
X114307660Y-107760331D01*
X114293746Y-107920381D01*
X114293715Y-107939715D01*
X114293715Y-108193715D01*
X114039715Y-108193715D01*
X114039715Y-108701715D01*
X114209953Y-108712949D01*
X114279770Y-108776331D01*
X114293683Y-108936381D01*
X114293715Y-108955715D01*
X114282480Y-109125953D01*
X114219098Y-109195770D01*
X114059048Y-109209683D01*
X114039715Y-109209715D01*
X113869476Y-109198480D01*
X113799660Y-109135098D01*
X113785746Y-108975048D01*
X113785715Y-108955715D01*
X113796949Y-108785476D01*
X113860331Y-108715660D01*
X114020381Y-108701746D01*
X114039715Y-108701715D01*
X114039715Y-108193715D01*
X112261715Y-108193715D01*
X112261715Y-108701715D01*
X113277715Y-108701715D01*
X113277715Y-109209715D01*
X112261715Y-109209715D01*
X112261715Y-109717715D01*
X113785715Y-109717715D01*
X113785715Y-109971715D01*
X113774480Y-110141953D01*
X113711098Y-110211770D01*
X113551048Y-110225683D01*
X113531715Y-110225715D01*
X113361476Y-110236949D01*
X113291660Y-110300331D01*
X113277746Y-110460381D01*
X113277715Y-110479715D01*
X113266480Y-110649953D01*
X113203098Y-110719770D01*
X113043048Y-110733683D01*
X113023715Y-110733715D01*
X112853476Y-110744949D01*
X112783660Y-110808331D01*
X112769746Y-110968381D01*
X112769715Y-110987715D01*
X112769715Y-111241715D01*
X111753715Y-111241715D01*
X111753715Y-110733715D01*
X112769715Y-110733715D01*
X112769715Y-110479715D01*
X112758480Y-110309476D01*
X112695098Y-110239660D01*
X112535048Y-110225746D01*
X112515715Y-110225715D01*
X112345476Y-110214480D01*
X112275660Y-110151098D01*
X112261746Y-109991048D01*
X112261715Y-109971715D01*
X112250480Y-109801476D01*
X112187098Y-109731660D01*
X112027048Y-109717746D01*
X112007715Y-109717715D01*
X111837476Y-109728949D01*
X111767660Y-109792331D01*
X111753746Y-109952381D01*
X111753715Y-109971715D01*
X111742480Y-110141953D01*
X111679098Y-110211770D01*
X111519048Y-110225683D01*
X111499715Y-110225715D01*
X111329476Y-110214480D01*
X111259660Y-110151098D01*
X111245746Y-109991048D01*
X111245715Y-109971715D01*
X111256949Y-109801476D01*
X111320331Y-109731660D01*
X111480381Y-109717746D01*
X111499715Y-109717715D01*
X111669953Y-109706480D01*
X111739770Y-109643098D01*
X111753683Y-109483048D01*
X111753715Y-109463715D01*
X111764949Y-109293476D01*
X111828331Y-109223660D01*
X111988381Y-109209746D01*
X112007715Y-109209715D01*
X112177953Y-109198480D01*
X112247770Y-109135098D01*
X112261683Y-108975048D01*
X112261715Y-108955715D01*
X112261715Y-108701715D01*
X112261715Y-108193715D01*
X111753715Y-108193715D01*
X111753715Y-108447715D01*
X111742480Y-108617953D01*
X111679098Y-108687770D01*
X111519048Y-108701683D01*
X111499715Y-108701715D01*
X111245715Y-108701715D01*
X111245715Y-108955715D01*
X111234480Y-109125953D01*
X111171098Y-109195770D01*
X111011048Y-109209683D01*
X110991715Y-109209715D01*
X110821476Y-109220949D01*
X110751660Y-109284331D01*
X110737746Y-109444381D01*
X110737715Y-109463715D01*
X110726480Y-109633953D01*
X110663098Y-109703770D01*
X110503048Y-109717683D01*
X110483715Y-109717715D01*
X110229715Y-109717715D01*
X110229715Y-110733715D01*
X110483715Y-110733715D01*
X110653953Y-110744949D01*
X110723770Y-110808331D01*
X110737683Y-110968381D01*
X110737715Y-110987715D01*
X110737715Y-111241715D01*
X109213715Y-111241715D01*
X109213715Y-111749715D01*
X112769715Y-111749715D01*
X112769715Y-111241715D01*
X113785715Y-111241715D01*
X113785715Y-111495715D01*
X113774480Y-111665953D01*
X113711098Y-111735770D01*
X113551048Y-111749683D01*
X113531715Y-111749715D01*
X113361476Y-111760949D01*
X113291660Y-111824331D01*
X113277746Y-111984381D01*
X113277715Y-112003715D01*
X113288949Y-112173953D01*
X113352331Y-112243770D01*
X113512381Y-112257683D01*
X113531715Y-112257715D01*
X113701953Y-112246480D01*
X113771770Y-112183098D01*
X113785683Y-112023048D01*
X113785715Y-112003715D01*
X113796949Y-111833476D01*
X113860331Y-111763660D01*
X114020381Y-111749746D01*
X114039715Y-111749715D01*
X114209953Y-111760949D01*
X114279770Y-111824331D01*
X114293683Y-111984381D01*
X114293715Y-112003715D01*
X114293715Y-112257715D01*
X115309715Y-112257715D01*
X115309715Y-112511715D01*
X115320949Y-112681953D01*
X115384331Y-112751770D01*
X115544381Y-112765683D01*
X115563715Y-112765715D01*
X115733953Y-112776949D01*
X115803770Y-112840331D01*
X115817683Y-113000381D01*
X115817715Y-113019715D01*
X115817715Y-113273715D01*
X115309715Y-113273715D01*
X115309715Y-113781715D01*
X117341715Y-113781715D01*
X117341715Y-115305715D01*
X116833715Y-115305715D01*
X116833715Y-114289715D01*
X116325715Y-114289715D01*
X116325715Y-115305715D01*
X115817715Y-115305715D01*
X115817715Y-114289715D01*
X115563715Y-114289715D01*
X115393476Y-114278480D01*
X115323660Y-114215098D01*
X115309746Y-114055048D01*
X115309715Y-114035715D01*
X115309715Y-113781715D01*
X115309715Y-113273715D01*
X114801715Y-113273715D01*
X114801715Y-112765715D01*
X113785715Y-112765715D01*
X113785715Y-113019715D01*
X113774480Y-113189953D01*
X113711098Y-113259770D01*
X113551048Y-113273683D01*
X113531715Y-113273715D01*
X113277715Y-113273715D01*
X113277715Y-114797715D01*
X113531715Y-114797715D01*
X113701953Y-114808949D01*
X113771770Y-114872331D01*
X113785683Y-115032381D01*
X113785715Y-115051715D01*
X113774480Y-115221953D01*
X113711098Y-115291770D01*
X113551048Y-115305683D01*
X113531715Y-115305715D01*
X113361476Y-115316949D01*
X113291660Y-115380331D01*
X113277746Y-115540381D01*
X113277715Y-115559715D01*
X113288949Y-115729953D01*
X113352331Y-115799770D01*
X113512381Y-115813683D01*
X113531715Y-115813715D01*
X113701953Y-115802480D01*
X113771770Y-115739098D01*
X113785683Y-115579048D01*
X113785715Y-115559715D01*
X113796949Y-115389476D01*
X113860331Y-115319660D01*
X114020381Y-115305746D01*
X114039715Y-115305715D01*
X114209953Y-115294480D01*
X114279770Y-115231098D01*
X114293683Y-115071048D01*
X114293715Y-115051715D01*
X114282480Y-114881476D01*
X114219098Y-114811660D01*
X114059048Y-114797746D01*
X114039715Y-114797715D01*
X113785715Y-114797715D01*
X113785715Y-113273715D01*
X114039715Y-113273715D01*
X114209953Y-113284949D01*
X114279770Y-113348331D01*
X114293683Y-113508381D01*
X114293715Y-113527715D01*
X114304949Y-113697953D01*
X114368331Y-113767770D01*
X114528381Y-113781683D01*
X114547715Y-113781715D01*
X114801715Y-113781715D01*
X114801715Y-114797715D01*
X115309715Y-114797715D01*
X115309715Y-115813715D01*
X116325715Y-115813715D01*
X116325715Y-115559715D01*
X116336949Y-115389476D01*
X116400331Y-115319660D01*
X116560381Y-115305746D01*
X116579715Y-115305715D01*
X116749953Y-115316949D01*
X116819770Y-115380331D01*
X116833683Y-115540381D01*
X116833715Y-115559715D01*
X116833715Y-115813715D01*
X118865715Y-115813715D01*
X118865715Y-114289715D01*
X118103715Y-114289715D01*
X118103715Y-114797715D01*
X118273953Y-114808949D01*
X118343770Y-114872331D01*
X118357683Y-115032381D01*
X118357715Y-115051715D01*
X118346480Y-115221953D01*
X118283098Y-115291770D01*
X118123048Y-115305683D01*
X118103715Y-115305715D01*
X117933476Y-115294480D01*
X117863660Y-115231098D01*
X117849746Y-115071048D01*
X117849715Y-115051715D01*
X117860949Y-114881476D01*
X117924331Y-114811660D01*
X118084381Y-114797746D01*
X118103715Y-114797715D01*
X118103715Y-114289715D01*
X117849715Y-114289715D01*
X117849715Y-113781715D01*
X119373715Y-113781715D01*
X119373715Y-114035715D01*
X119384949Y-114205953D01*
X119448331Y-114275770D01*
X119608381Y-114289683D01*
X119627715Y-114289715D01*
X119881715Y-114289715D01*
X119881715Y-115305715D01*
X119627715Y-115305715D01*
X119457476Y-115316949D01*
X119387660Y-115380331D01*
X119373746Y-115540381D01*
X119373715Y-115559715D01*
X119373715Y-115813715D01*
X120389715Y-115813715D01*
X120389715Y-115559715D01*
X120400949Y-115389476D01*
X120464331Y-115319660D01*
X120624381Y-115305746D01*
X120643715Y-115305715D01*
X120813953Y-115294480D01*
X120883770Y-115231098D01*
X120897683Y-115071048D01*
X120897715Y-115051715D01*
X120908949Y-114881476D01*
X120972331Y-114811660D01*
X121132381Y-114797746D01*
X121151715Y-114797715D01*
X121405715Y-114797715D01*
X121405715Y-115813715D01*
X121913715Y-115813715D01*
X121913715Y-112765715D01*
X121659715Y-112765715D01*
X121489476Y-112776949D01*
X121419660Y-112840331D01*
X121405746Y-113000381D01*
X121405715Y-113019715D01*
X121405715Y-113273715D01*
X120389715Y-113273715D01*
X120389715Y-113781715D01*
X121405715Y-113781715D01*
X121405715Y-114289715D01*
X120389715Y-114289715D01*
X120389715Y-113781715D01*
X120389715Y-113273715D01*
X119881715Y-113273715D01*
X119881715Y-112765715D01*
X120897715Y-112765715D01*
X120897715Y-110733715D01*
X121913715Y-110733715D01*
X121913715Y-109717715D01*
X120897715Y-109717715D01*
X120897715Y-109971715D01*
X120886480Y-110141953D01*
X120823098Y-110211770D01*
X120663048Y-110225683D01*
X120643715Y-110225715D01*
X120389715Y-110225715D01*
X120389715Y-109209715D01*
X121913715Y-109209715D01*
X121913715Y-108955715D01*
X121902480Y-108785476D01*
X121839098Y-108715660D01*
X121679048Y-108701746D01*
X121659715Y-108701715D01*
X121489476Y-108690480D01*
X121419660Y-108627098D01*
X121405746Y-108467048D01*
X121405715Y-108447715D01*
X121394480Y-108277476D01*
X121331098Y-108207660D01*
X121171048Y-108193746D01*
X121151715Y-108193715D01*
X120981476Y-108182480D01*
X120911660Y-108119098D01*
X120897746Y-107959048D01*
X120897715Y-107939715D01*
X120897715Y-107685715D01*
X121913715Y-107685715D01*
X121913715Y-107177715D01*
X119881715Y-107177715D01*
X119881715Y-107685715D01*
X119881715Y-108193715D01*
X120897715Y-108193715D01*
X120897715Y-108701715D01*
X119881715Y-108701715D01*
X119881715Y-108193715D01*
X119881715Y-107685715D01*
X118865715Y-107685715D01*
X118865715Y-107939715D01*
X118854480Y-108109953D01*
X118791098Y-108179770D01*
X118631048Y-108193683D01*
X118611715Y-108193715D01*
X118357715Y-108193715D01*
X118357715Y-107177715D01*
X117341715Y-107177715D01*
X117341715Y-108701715D01*
X118865715Y-108701715D01*
X118865715Y-108447715D01*
X118876949Y-108277476D01*
X118940331Y-108207660D01*
X119100381Y-108193746D01*
X119119715Y-108193715D01*
X119373715Y-108193715D01*
X119373715Y-109209715D01*
X119881715Y-109209715D01*
X119881715Y-110225715D01*
X119373715Y-110225715D01*
X119373715Y-110733715D01*
X120389715Y-110733715D01*
X120389715Y-111241715D01*
X119373715Y-111241715D01*
X119373715Y-110733715D01*
X119373715Y-110225715D01*
X118865715Y-110225715D01*
X118865715Y-111241715D01*
X118357715Y-111241715D01*
X118357715Y-110225715D01*
X117849715Y-110225715D01*
X117849715Y-111241715D01*
X117849715Y-111749715D01*
X119373715Y-111749715D01*
X119373715Y-113273715D01*
X117849715Y-113273715D01*
X117849715Y-111749715D01*
X117849715Y-111241715D01*
X116325715Y-111241715D01*
X116325715Y-110987715D01*
X116336949Y-110817476D01*
X116400331Y-110747660D01*
X116560381Y-110733746D01*
X116579715Y-110733715D01*
X116749953Y-110722480D01*
X116819770Y-110659098D01*
X116833683Y-110499048D01*
X116833715Y-110479715D01*
X116822480Y-110309476D01*
X116759098Y-110239660D01*
X116599048Y-110225746D01*
X116579715Y-110225715D01*
X116325715Y-110225715D01*
X116325715Y-109209715D01*
X117341715Y-109209715D01*
X117341715Y-108955715D01*
X117330480Y-108785476D01*
X117267098Y-108715660D01*
X117107048Y-108701746D01*
X117087715Y-108701715D01*
X116833715Y-108701715D01*
X116833715Y-107685715D01*
X116325715Y-107685715D01*
X116325715Y-108701715D01*
X116071715Y-108701715D01*
X115901476Y-108712949D01*
X115831660Y-108776331D01*
X115817746Y-108936381D01*
X115817715Y-108955715D01*
X115806480Y-109125953D01*
X115743098Y-109195770D01*
X115583048Y-109209683D01*
X115563715Y-109209715D01*
X115393476Y-109220949D01*
X115323660Y-109284331D01*
X115309746Y-109444381D01*
X115309715Y-109463715D01*
X115298480Y-109633953D01*
X115235098Y-109703770D01*
X115075048Y-109717683D01*
X115055715Y-109717715D01*
X114801715Y-109717715D01*
X114801715Y-110225715D01*
X115817715Y-110225715D01*
X115817715Y-110479715D01*
X115806480Y-110649953D01*
X115743098Y-110719770D01*
X115583048Y-110733683D01*
X115563715Y-110733715D01*
X115393476Y-110744949D01*
X115323660Y-110808331D01*
X115309746Y-110968381D01*
X115309715Y-110987715D01*
X115320949Y-111157953D01*
X115384331Y-111227770D01*
X115544381Y-111241683D01*
X115563715Y-111241715D01*
X115733953Y-111252949D01*
X115803770Y-111316331D01*
X115817683Y-111476381D01*
X115817715Y-111495715D01*
X115817715Y-111749715D01*
X117341715Y-111749715D01*
X117341715Y-112765715D01*
X117087715Y-112765715D01*
X116917476Y-112776949D01*
X116847660Y-112840331D01*
X116833746Y-113000381D01*
X116833715Y-113019715D01*
X116822480Y-113189953D01*
X116759098Y-113259770D01*
X116599048Y-113273683D01*
X116579715Y-113273715D01*
X116325715Y-113273715D01*
X116325715Y-112257715D01*
X116071715Y-112257715D01*
X115901476Y-112246480D01*
X115831660Y-112183098D01*
X115817746Y-112023048D01*
X115817715Y-112003715D01*
X115806480Y-111833476D01*
X115743098Y-111763660D01*
X115583048Y-111749746D01*
X115563715Y-111749715D01*
X115393476Y-111738480D01*
X115323660Y-111675098D01*
X115309746Y-111515048D01*
X115309715Y-111495715D01*
X115309715Y-111241715D01*
X113785715Y-111241715D01*
X113785715Y-110733715D01*
X114801715Y-110733715D01*
X114801715Y-110225715D01*
X114801715Y-109717715D01*
X114801715Y-108701715D01*
X115817715Y-108701715D01*
X115817715Y-107685715D01*
X115563715Y-107685715D01*
X115393476Y-107674480D01*
X115323660Y-107611098D01*
X115309746Y-107451048D01*
X115309715Y-107431715D01*
X115320949Y-107261476D01*
X115384331Y-107191660D01*
X115544381Y-107177746D01*
X115563715Y-107177715D01*
X115733953Y-107188949D01*
X115803770Y-107252331D01*
X115817683Y-107412381D01*
X115817715Y-107431715D01*
X115828949Y-107601953D01*
X115892331Y-107671770D01*
X116052381Y-107685683D01*
X116071715Y-107685715D01*
X116241953Y-107674480D01*
X116311770Y-107611098D01*
X116325683Y-107451048D01*
X116325715Y-107431715D01*
X116325715Y-107177715D01*
X115817715Y-107177715D01*
G36*
X121416949Y-112173953D02*
G01*
X121480331Y-112243770D01*
X121640381Y-112257683D01*
X121659715Y-112257715D01*
X121829953Y-112246480D01*
X121899770Y-112183098D01*
X121913683Y-112023048D01*
X121913715Y-112003715D01*
X121902480Y-111833476D01*
X121839098Y-111763660D01*
X121679048Y-111749746D01*
X121659715Y-111749715D01*
X121489476Y-111760949D01*
X121419660Y-111824331D01*
X121405746Y-111984381D01*
X121405715Y-112003715D01*
X121416949Y-112173953D01*
G37*
X121416949Y-112173953D02*
X121480331Y-112243770D01*
X121640381Y-112257683D01*
X121659715Y-112257715D01*
X121829953Y-112246480D01*
X121899770Y-112183098D01*
X121913683Y-112023048D01*
X121913715Y-112003715D01*
X121902480Y-111833476D01*
X121839098Y-111763660D01*
X121679048Y-111749746D01*
X121659715Y-111749715D01*
X121489476Y-111760949D01*
X121419660Y-111824331D01*
X121405746Y-111984381D01*
X121405715Y-112003715D01*
X121416949Y-112173953D01*
G36*
X115817715Y-104637715D02*
G01*
X115817715Y-103621715D01*
X115309715Y-103621715D01*
X115309715Y-104637715D01*
X115817715Y-104637715D01*
G37*
X115817715Y-104637715D02*
X115817715Y-103621715D01*
X115309715Y-103621715D01*
X115309715Y-104637715D01*
X115817715Y-104637715D01*
G36*
X114304949Y-103537953D02*
G01*
X114368331Y-103607770D01*
X114528381Y-103621683D01*
X114547715Y-103621715D01*
X114717953Y-103610480D01*
X114787770Y-103547098D01*
X114801683Y-103387048D01*
X114801715Y-103367715D01*
X114790480Y-103197476D01*
X114727098Y-103127660D01*
X114567048Y-103113746D01*
X114547715Y-103113715D01*
X114377476Y-103124949D01*
X114307660Y-103188331D01*
X114293746Y-103348381D01*
X114293715Y-103367715D01*
X114304949Y-103537953D01*
G37*
X114304949Y-103537953D02*
X114368331Y-103607770D01*
X114528381Y-103621683D01*
X114547715Y-103621715D01*
X114717953Y-103610480D01*
X114787770Y-103547098D01*
X114801683Y-103387048D01*
X114801715Y-103367715D01*
X114790480Y-103197476D01*
X114727098Y-103127660D01*
X114567048Y-103113746D01*
X114547715Y-103113715D01*
X114377476Y-103124949D01*
X114307660Y-103188331D01*
X114293746Y-103348381D01*
X114293715Y-103367715D01*
X114304949Y-103537953D01*
G36*
X113288949Y-106585953D02*
G01*
X113352331Y-106655770D01*
X113512381Y-106669683D01*
X113531715Y-106669715D01*
X113701953Y-106658480D01*
X113771770Y-106595098D01*
X113785683Y-106435048D01*
X113785715Y-106415715D01*
X113774480Y-106245476D01*
X113711098Y-106175660D01*
X113551048Y-106161746D01*
X113531715Y-106161715D01*
X113361476Y-106172949D01*
X113291660Y-106236331D01*
X113277746Y-106396381D01*
X113277715Y-106415715D01*
X113288949Y-106585953D01*
G37*
X113288949Y-106585953D02*
X113352331Y-106655770D01*
X113512381Y-106669683D01*
X113531715Y-106669715D01*
X113701953Y-106658480D01*
X113771770Y-106595098D01*
X113785683Y-106435048D01*
X113785715Y-106415715D01*
X113774480Y-106245476D01*
X113711098Y-106175660D01*
X113551048Y-106161746D01*
X113531715Y-106161715D01*
X113361476Y-106172949D01*
X113291660Y-106236331D01*
X113277746Y-106396381D01*
X113277715Y-106415715D01*
X113288949Y-106585953D01*
G36*
X113288949Y-107601953D02*
G01*
X113352331Y-107671770D01*
X113512381Y-107685683D01*
X113531715Y-107685715D01*
X113701953Y-107674480D01*
X113771770Y-107611098D01*
X113785683Y-107451048D01*
X113785715Y-107431715D01*
X113774480Y-107261476D01*
X113711098Y-107191660D01*
X113551048Y-107177746D01*
X113531715Y-107177715D01*
X113361476Y-107188949D01*
X113291660Y-107252331D01*
X113277746Y-107412381D01*
X113277715Y-107431715D01*
X113288949Y-107601953D01*
G37*
X113288949Y-107601953D02*
X113352331Y-107671770D01*
X113512381Y-107685683D01*
X113531715Y-107685715D01*
X113701953Y-107674480D01*
X113771770Y-107611098D01*
X113785683Y-107451048D01*
X113785715Y-107431715D01*
X113774480Y-107261476D01*
X113711098Y-107191660D01*
X113551048Y-107177746D01*
X113531715Y-107177715D01*
X113361476Y-107188949D01*
X113291660Y-107252331D01*
X113277746Y-107412381D01*
X113277715Y-107431715D01*
X113288949Y-107601953D01*
G36*
X112769715Y-106669715D02*
G01*
X112769715Y-103113715D01*
X109721715Y-103113715D01*
X109721715Y-103621715D01*
X112261715Y-103621715D01*
X112261715Y-106161715D01*
X109721715Y-106161715D01*
X109721715Y-103621715D01*
X109721715Y-103113715D01*
X109213715Y-103113715D01*
X109213715Y-106669715D01*
X112769715Y-106669715D01*
G37*
X112769715Y-106669715D02*
X112769715Y-103113715D01*
X109721715Y-103113715D01*
X109721715Y-103621715D01*
X112261715Y-103621715D01*
X112261715Y-106161715D01*
X109721715Y-106161715D01*
X109721715Y-103621715D01*
X109721715Y-103113715D01*
X109213715Y-103113715D01*
X109213715Y-106669715D01*
X112769715Y-106669715D01*
G36*
X112272949Y-107601953D02*
G01*
X112336331Y-107671770D01*
X112496381Y-107685683D01*
X112515715Y-107685715D01*
X112685953Y-107674480D01*
X112755770Y-107611098D01*
X112769683Y-107451048D01*
X112769715Y-107431715D01*
X112758480Y-107261476D01*
X112695098Y-107191660D01*
X112535048Y-107177746D01*
X112515715Y-107177715D01*
X112345476Y-107188949D01*
X112275660Y-107252331D01*
X112261746Y-107412381D01*
X112261715Y-107431715D01*
X112272949Y-107601953D01*
G37*
X112272949Y-107601953D02*
X112336331Y-107671770D01*
X112496381Y-107685683D01*
X112515715Y-107685715D01*
X112685953Y-107674480D01*
X112755770Y-107611098D01*
X112769683Y-107451048D01*
X112769715Y-107431715D01*
X112758480Y-107261476D01*
X112695098Y-107191660D01*
X112535048Y-107177746D01*
X112515715Y-107177715D01*
X112345476Y-107188949D01*
X112275660Y-107252331D01*
X112261746Y-107412381D01*
X112261715Y-107431715D01*
X112272949Y-107601953D01*
G36*
X112769715Y-115813715D02*
G01*
X112769715Y-112257715D01*
X109721715Y-112257715D01*
X109721715Y-112765715D01*
X112261715Y-112765715D01*
X112261715Y-115305715D01*
X109721715Y-115305715D01*
X109721715Y-112765715D01*
X109721715Y-112257715D01*
X109213715Y-112257715D01*
X109213715Y-115813715D01*
X112769715Y-115813715D01*
G37*
X112769715Y-115813715D02*
X112769715Y-112257715D01*
X109721715Y-112257715D01*
X109721715Y-112765715D01*
X112261715Y-112765715D01*
X112261715Y-115305715D01*
X109721715Y-115305715D01*
X109721715Y-112765715D01*
X109721715Y-112257715D01*
X109213715Y-112257715D01*
X109213715Y-115813715D01*
X112769715Y-115813715D01*
G36*
X109224949Y-110649953D02*
G01*
X109288331Y-110719770D01*
X109448381Y-110733683D01*
X109467715Y-110733715D01*
X109637953Y-110722480D01*
X109707770Y-110659098D01*
X109721683Y-110499048D01*
X109721715Y-110479715D01*
X109710480Y-110309476D01*
X109647098Y-110239660D01*
X109487048Y-110225746D01*
X109467715Y-110225715D01*
X109297476Y-110236949D01*
X109227660Y-110300331D01*
X109213746Y-110460381D01*
X109213715Y-110479715D01*
X109224949Y-110649953D01*
G37*
X109224949Y-110649953D02*
X109288331Y-110719770D01*
X109448381Y-110733683D01*
X109467715Y-110733715D01*
X109637953Y-110722480D01*
X109707770Y-110659098D01*
X109721683Y-110499048D01*
X109721715Y-110479715D01*
X109710480Y-110309476D01*
X109647098Y-110239660D01*
X109487048Y-110225746D01*
X109467715Y-110225715D01*
X109297476Y-110236949D01*
X109227660Y-110300331D01*
X109213746Y-110460381D01*
X109213715Y-110479715D01*
X109224949Y-110649953D01*
G36*
X120897715Y-105653715D02*
G01*
X120897715Y-104129715D01*
X119373715Y-104129715D01*
X119373715Y-105653715D01*
X120897715Y-105653715D01*
G37*
X120897715Y-105653715D02*
X120897715Y-104129715D01*
X119373715Y-104129715D01*
X119373715Y-105653715D01*
X120897715Y-105653715D01*
G36*
X118876949Y-109633953D02*
G01*
X118940331Y-109703770D01*
X119100381Y-109717683D01*
X119119715Y-109717715D01*
X119289953Y-109706480D01*
X119359770Y-109643098D01*
X119373683Y-109483048D01*
X119373715Y-109463715D01*
X119362480Y-109293476D01*
X119299098Y-109223660D01*
X119139048Y-109209746D01*
X119119715Y-109209715D01*
X118949476Y-109220949D01*
X118879660Y-109284331D01*
X118865746Y-109444381D01*
X118865715Y-109463715D01*
X118876949Y-109633953D01*
G37*
X118876949Y-109633953D02*
X118940331Y-109703770D01*
X119100381Y-109717683D01*
X119119715Y-109717715D01*
X119289953Y-109706480D01*
X119359770Y-109643098D01*
X119373683Y-109483048D01*
X119373715Y-109463715D01*
X119362480Y-109293476D01*
X119299098Y-109223660D01*
X119139048Y-109209746D01*
X119119715Y-109209715D01*
X118949476Y-109220949D01*
X118879660Y-109284331D01*
X118865746Y-109444381D01*
X118865715Y-109463715D01*
X118876949Y-109633953D01*
G36*
X117352949Y-110141953D02*
G01*
X117416331Y-110211770D01*
X117576381Y-110225683D01*
X117595715Y-110225715D01*
X117765953Y-110214480D01*
X117835770Y-110151098D01*
X117849683Y-109991048D01*
X117849715Y-109971715D01*
X117838480Y-109801476D01*
X117775098Y-109731660D01*
X117615048Y-109717746D01*
X117595715Y-109717715D01*
X117425476Y-109728949D01*
X117355660Y-109792331D01*
X117341746Y-109952381D01*
X117341715Y-109971715D01*
X117352949Y-110141953D01*
G37*
X117352949Y-110141953D02*
X117416331Y-110211770D01*
X117576381Y-110225683D01*
X117595715Y-110225715D01*
X117765953Y-110214480D01*
X117835770Y-110151098D01*
X117849683Y-109991048D01*
X117849715Y-109971715D01*
X117838480Y-109801476D01*
X117775098Y-109731660D01*
X117615048Y-109717746D01*
X117595715Y-109717715D01*
X117425476Y-109728949D01*
X117355660Y-109792331D01*
X117341746Y-109952381D01*
X117341715Y-109971715D01*
X117352949Y-110141953D01*
G36*
X118368949Y-112681953D02*
G01*
X118432331Y-112751770D01*
X118592381Y-112765683D01*
X118611715Y-112765715D01*
X118781953Y-112754480D01*
X118851770Y-112691098D01*
X118865683Y-112531048D01*
X118865715Y-112511715D01*
X118854480Y-112341476D01*
X118791098Y-112271660D01*
X118631048Y-112257746D01*
X118611715Y-112257715D01*
X118441476Y-112268949D01*
X118371660Y-112332331D01*
X118357746Y-112492381D01*
X118357715Y-112511715D01*
X118368949Y-112681953D01*
G37*
X118368949Y-112681953D02*
X118432331Y-112751770D01*
X118592381Y-112765683D01*
X118611715Y-112765715D01*
X118781953Y-112754480D01*
X118851770Y-112691098D01*
X118865683Y-112531048D01*
X118865715Y-112511715D01*
X118854480Y-112341476D01*
X118791098Y-112271660D01*
X118631048Y-112257746D01*
X118611715Y-112257715D01*
X118441476Y-112268949D01*
X118371660Y-112332331D01*
X118357746Y-112492381D01*
X118357715Y-112511715D01*
X118368949Y-112681953D01*
G36*
X111753715Y-105653715D02*
G01*
X111753715Y-104129715D01*
X110229715Y-104129715D01*
X110229715Y-105653715D01*
X111753715Y-105653715D01*
G37*
X111753715Y-105653715D02*
X111753715Y-104129715D01*
X110229715Y-104129715D01*
X110229715Y-105653715D01*
X111753715Y-105653715D01*
G36*
X111753715Y-114797715D02*
G01*
X111753715Y-113273715D01*
X110229715Y-113273715D01*
X110229715Y-114797715D01*
X111753715Y-114797715D01*
G37*
X111753715Y-114797715D02*
X111753715Y-113273715D01*
X110229715Y-113273715D01*
X110229715Y-114797715D01*
X111753715Y-114797715D01*
%TD*%
M02*
